<svg id="svg" version="1.1" xmlns="http://www.w3.org/2000/svg" xmlns:xlink="http://www.w3.org/1999/xlink" width="400" height="400" viewBox="0, 0, 400,400"><g id="svgg"><path id="path0" d="M78.400 88.800 C 78.400 89.020,78.123 89.200,77.784 89.200 C 77.086 89.200,74.000 92.110,74.000 92.769 C 74.000 93.006,73.820 93.200,73.600 93.200 C 73.380 93.200,73.200 94.010,73.200 95.000 C 73.200 95.990,73.020 96.800,72.800 96.800 C 72.534 96.800,72.400 134.133,72.400 208.000 C 72.400 281.867,72.534 319.200,72.800 319.200 C 73.020 319.200,73.200 319.920,73.200 320.800 C 73.200 321.680,73.380 322.400,73.600 322.400 C 73.820 322.400,74.000 322.670,74.000 323.000 C 74.000 323.895,77.076 326.800,78.024 326.800 C 78.477 326.800,78.736 326.980,78.600 327.200 C 78.445 327.451,79.329 327.600,80.976 327.600 C 82.459 327.600,83.600 327.774,83.600 328.000 C 83.600 328.263,92.608 328.400,109.824 328.400 C 127.204 328.400,135.964 328.265,135.800 328.000 C 135.645 327.749,136.529 327.600,138.176 327.600 C 139.659 327.600,140.800 327.426,140.800 327.200 C 140.800 326.980,141.076 326.800,141.413 326.800 C 141.751 326.800,142.555 326.260,143.200 325.600 C 143.845 324.940,144.559 324.400,144.787 324.400 C 145.014 324.400,145.200 324.051,145.200 323.624 C 145.200 323.197,145.380 322.736,145.600 322.600 C 145.820 322.464,146.000 321.829,146.000 321.189 L 146.000 320.025 117.500 319.913 L 89.000 319.800 86.750 318.695 C 84.416 317.549,82.972 315.866,82.068 313.240 C 81.715 312.215,81.600 284.427,81.600 200.140 L 81.600 88.400 80.000 88.400 C 79.120 88.400,78.400 88.580,78.400 88.800 M235.600 89.600 C 235.600 89.820,235.360 90.000,235.066 90.000 C 234.341 90.000,229.200 95.424,229.200 96.189 C 229.200 96.525,229.020 96.800,228.800 96.800 C 228.580 96.800,228.400 97.160,228.400 97.600 C 228.400 98.040,228.254 98.400,228.075 98.400 C 227.896 98.400,227.502 99.030,227.200 99.800 C 226.898 100.570,226.504 101.200,226.325 101.200 C 226.146 101.200,226.000 101.470,226.000 101.800 C 226.000 102.130,225.820 102.400,225.600 102.400 C 225.380 102.400,225.200 102.760,225.200 103.200 C 225.200 103.640,225.020 104.000,224.800 104.000 C 224.580 104.000,224.400 104.360,224.400 104.800 C 224.400 105.240,224.220 105.600,224.000 105.600 C 223.780 105.600,223.600 105.960,223.600 106.400 C 223.600 106.840,223.454 107.200,223.275 107.200 C 223.096 107.200,222.702 107.830,222.400 108.600 C 222.098 109.370,221.704 110.000,221.525 110.000 C 221.346 110.000,221.200 110.270,221.200 110.600 C 221.200 110.930,221.020 111.200,220.800 111.200 C 220.580 111.200,220.400 111.560,220.400 112.000 C 220.400 112.440,220.220 112.800,220.000 112.800 C 219.780 112.800,219.600 113.160,219.600 113.600 C 219.600 114.040,219.420 114.400,219.200 114.400 C 218.980 114.400,218.800 114.760,218.800 115.200 C 218.800 115.640,218.620 116.000,218.400 116.000 C 218.180 116.000,218.000 116.270,218.000 116.600 C 218.000 116.930,217.820 117.200,217.600 117.200 C 217.380 117.200,217.200 117.560,217.200 118.000 C 217.200 118.440,217.020 118.800,216.800 118.800 C 216.580 118.800,216.400 119.070,216.400 119.400 C 216.400 119.730,216.220 120.000,216.000 120.000 C 215.780 120.000,215.600 120.360,215.600 120.800 C 215.600 121.240,215.420 121.600,215.200 121.600 C 214.980 121.600,214.800 121.960,214.800 122.400 C 214.800 122.840,214.654 123.200,214.475 123.200 C 214.296 123.200,213.902 123.830,213.600 124.600 C 213.298 125.370,212.904 126.000,212.725 126.000 C 212.546 126.000,212.400 126.360,212.400 126.800 C 212.400 127.240,212.220 127.600,212.000 127.600 C 211.780 127.600,211.600 127.870,211.600 128.200 C 211.600 128.530,211.420 128.800,211.200 128.800 C 210.980 128.800,210.800 129.160,210.800 129.600 C 210.800 130.040,210.620 130.400,210.400 130.400 C 210.180 130.400,210.000 130.760,210.000 131.200 C 210.000 131.640,209.820 132.000,209.600 132.000 C 209.380 132.000,209.200 132.270,209.200 132.600 C 209.200 132.930,209.020 133.200,208.800 133.200 C 208.580 133.200,208.400 133.560,208.400 134.000 C 208.400 134.440,208.220 134.800,208.000 134.800 C 207.780 134.800,207.600 135.070,207.600 135.400 C 207.600 135.730,207.420 136.000,207.200 136.000 C 206.980 136.000,206.800 136.360,206.800 136.800 C 206.800 137.240,206.620 137.600,206.400 137.600 C 206.180 137.600,206.000 137.870,206.000 138.200 C 206.000 138.530,205.820 138.800,205.600 138.800 C 205.136 138.800,205.075 139.994,205.506 140.642 C 206.539 142.197,208.621 141.641,209.769 139.503 C 210.391 138.346,211.417 136.455,212.050 135.300 C 212.682 134.145,213.740 132.210,214.400 131.000 C 215.060 129.790,216.165 127.765,216.856 126.500 C 217.546 125.235,218.651 123.210,219.311 122.000 C 219.971 120.790,221.051 118.810,221.711 117.600 C 222.371 116.390,223.426 114.455,224.056 113.300 C 226.221 109.326,227.713 106.596,228.591 105.000 C 237.492 88.817,237.307 89.200,236.200 89.200 C 235.870 89.200,235.600 89.380,235.600 89.600 M241.607 201.900 C 241.061 202.945,239.582 205.666,238.321 207.946 C 237.059 210.226,235.616 212.926,235.114 213.946 L 234.200 215.800 234.096 267.500 C 234.026 302.148,234.125 319.200,234.396 319.200 C 234.618 319.200,234.800 319.920,234.800 320.800 C 234.800 321.680,234.980 322.400,235.200 322.400 C 235.420 322.400,235.600 322.676,235.600 323.013 C 235.600 323.680,237.786 326.000,238.414 326.000 C 238.626 326.000,238.800 326.180,238.800 326.400 C 238.800 326.620,239.160 326.800,239.600 326.800 C 240.040 326.800,240.400 326.980,240.400 327.200 C 240.400 327.422,241.467 327.600,242.800 327.600 C 244.133 327.600,245.200 327.778,245.200 328.000 C 245.200 328.263,254.467 328.400,272.200 328.400 C 289.933 328.400,299.200 328.263,299.200 328.000 C 299.200 327.778,300.267 327.600,301.600 327.600 C 302.933 327.600,304.000 327.422,304.000 327.200 C 304.000 326.980,304.270 326.800,304.600 326.800 C 305.231 326.800,308.400 323.758,308.400 323.152 C 308.400 322.958,308.580 322.800,308.800 322.800 C 309.020 322.800,309.200 322.350,309.200 321.800 C 309.200 321.250,309.416 320.800,309.680 320.800 C 309.992 320.800,310.023 320.663,309.770 320.410 C 309.526 320.166,298.443 319.976,280.190 319.901 C 247.451 319.767,248.946 319.901,245.965 316.829 C 243.036 313.810,243.200 317.446,243.200 255.623 C 243.200 225.030,243.065 200.000,242.899 200.000 C 242.734 200.000,242.152 200.855,241.607 201.900 M164.139 219.700 C 164.323 232.943,164.316 232.800,164.825 232.800 C 165.031 232.800,165.200 233.160,165.200 233.600 C 165.200 234.040,165.380 234.400,165.600 234.400 C 165.820 234.400,166.000 234.760,166.000 235.200 C 166.000 235.640,166.150 236.000,166.332 236.000 C 166.515 236.000,166.919 236.475,167.230 237.056 C 168.120 238.719,173.201 243.600,174.041 243.600 C 174.459 243.600,174.800 243.780,174.800 244.000 C 174.800 244.220,175.340 244.400,176.000 244.400 C 176.660 244.400,177.200 244.580,177.200 244.800 C 177.200 245.020,178.190 245.200,179.400 245.200 C 180.610 245.200,181.600 245.380,181.600 245.600 C 181.600 245.855,184.933 246.000,190.800 246.000 C 196.667 246.000,200.000 245.855,200.000 245.600 C 200.000 245.380,200.900 245.200,202.000 245.200 C 203.100 245.200,204.000 245.020,204.000 244.800 C 204.000 244.580,204.540 244.400,205.200 244.400 C 205.860 244.400,206.400 244.220,206.400 244.000 C 206.400 243.780,206.676 243.600,207.013 243.600 C 207.351 243.600,208.149 243.105,208.787 242.500 C 215.067 236.544,215.237 236.148,211.129 237.029 C 204.088 238.540,186.990 237.588,182.709 235.449 C 178.304 233.246,177.525 232.186,169.889 218.000 C 168.883 216.130,167.405 213.430,166.606 212.000 C 165.807 210.570,165.052 209.085,164.930 208.700 C 164.188 206.371,163.992 209.096,164.139 219.700 " stroke="none" fill="#fb05fb" fill-rule="evenodd"></path><path id="path1" d="M100.200 71.200 C 100.354 71.450,99.537 71.600,98.024 71.600 C 96.675 71.600,95.600 71.777,95.600 72.000 C 95.600 72.220,95.321 72.400,94.981 72.400 C 94.171 72.400,90.800 75.731,90.800 76.532 C 90.800 76.874,90.620 77.264,90.400 77.400 C 90.180 77.536,90.000 78.079,90.000 78.607 L 90.000 79.568 120.900 79.684 L 151.800 79.800 153.756 80.710 C 154.832 81.210,156.576 82.342,157.630 83.226 C 160.279 85.443,161.774 87.778,169.013 101.000 C 169.856 102.540,171.053 104.663,171.673 105.718 C 172.293 106.772,172.800 107.709,172.800 107.800 C 172.800 107.891,173.307 108.828,173.927 109.882 C 174.547 110.937,175.743 113.060,176.586 114.600 C 182.894 126.127,194.230 146.399,194.874 147.305 C 197.455 150.928,202.992 150.422,205.694 146.315 C 208.418 142.177,208.460 141.778,206.207 141.531 C 205.292 141.430,204.922 141.121,204.614 140.200 C 204.394 139.540,203.895 138.709,203.507 138.353 C 203.118 137.997,202.800 137.412,202.800 137.053 C 202.800 136.694,202.620 136.400,202.400 136.400 C 202.180 136.400,202.000 136.055,202.000 135.633 C 202.000 135.212,201.865 134.807,201.700 134.733 C 201.324 134.566,200.025 132.436,199.729 131.500 C 199.607 131.115,199.348 130.800,199.153 130.800 C 198.959 130.800,198.800 130.440,198.800 130.000 C 198.800 129.560,198.620 129.200,198.400 129.200 C 198.180 129.200,198.000 128.840,198.000 128.400 C 198.000 127.960,197.820 127.600,197.600 127.600 C 197.380 127.600,197.200 127.364,197.200 127.075 C 197.200 126.787,196.840 126.164,196.400 125.692 C 195.960 125.220,195.600 124.556,195.600 124.217 C 195.600 123.878,195.420 123.600,195.200 123.600 C 194.980 123.600,194.800 123.240,194.800 122.800 C 194.800 122.360,194.620 122.000,194.400 122.000 C 194.180 122.000,194.000 121.640,194.000 121.200 C 194.000 120.760,193.820 120.400,193.600 120.400 C 193.380 120.400,193.200 120.164,193.200 119.875 C 193.200 119.587,192.840 118.964,192.400 118.492 C 191.960 118.020,191.600 117.356,191.600 117.017 C 191.600 116.678,191.420 116.400,191.200 116.400 C 190.980 116.400,190.800 116.040,190.800 115.600 C 190.800 115.160,190.620 114.800,190.400 114.800 C 190.180 114.800,190.000 114.455,190.000 114.033 C 190.000 113.612,189.865 113.207,189.700 113.133 C 189.535 113.060,188.967 112.145,188.437 111.100 C 187.908 110.055,187.323 109.200,187.137 109.200 C 186.952 109.200,186.800 108.840,186.800 108.400 C 186.800 107.960,186.620 107.600,186.400 107.600 C 186.180 107.600,186.000 107.240,186.000 106.800 C 186.000 106.360,185.820 106.000,185.600 106.000 C 185.380 106.000,185.200 105.680,185.200 105.288 C 185.200 104.897,184.840 104.317,184.400 104.000 C 183.960 103.683,183.600 103.103,183.600 102.712 C 183.600 102.320,183.420 102.000,183.200 102.000 C 182.980 102.000,182.800 101.640,182.800 101.200 C 182.800 100.760,182.620 100.400,182.400 100.400 C 182.180 100.400,182.000 100.040,182.000 99.600 C 182.000 99.160,181.820 98.800,181.600 98.800 C 181.380 98.800,181.200 98.440,181.200 98.000 C 181.200 97.560,181.020 97.200,180.800 97.200 C 180.580 97.200,180.400 96.880,180.400 96.488 C 180.400 96.097,180.040 95.517,179.600 95.200 C 179.160 94.883,178.800 94.303,178.800 93.912 C 178.800 93.520,178.620 93.200,178.400 93.200 C 178.180 93.200,178.000 92.840,178.000 92.400 C 178.000 91.960,177.820 91.600,177.600 91.600 C 177.380 91.600,177.200 91.240,177.200 90.800 C 177.200 90.360,177.020 90.000,176.800 90.000 C 176.580 90.000,176.400 89.680,176.400 89.288 C 176.400 88.897,176.040 88.317,175.600 88.000 C 175.160 87.683,174.800 87.103,174.800 86.712 C 174.800 86.320,174.620 86.000,174.400 86.000 C 174.180 86.000,174.000 85.640,174.000 85.200 C 174.000 84.760,173.820 84.400,173.600 84.400 C 173.380 84.400,173.200 84.040,173.200 83.600 C 173.200 83.160,173.020 82.800,172.800 82.800 C 172.580 82.800,172.400 82.564,172.400 82.275 C 172.400 81.987,172.040 81.364,171.600 80.892 C 171.160 80.420,170.800 79.796,170.800 79.505 C 170.800 79.214,170.440 78.717,170.000 78.400 C 169.560 78.083,169.200 77.587,169.200 77.298 C 169.200 76.669,166.608 74.000,165.997 74.000 C 165.760 74.000,165.180 73.640,164.708 73.200 C 164.236 72.760,163.433 72.400,162.925 72.400 C 162.416 72.400,162.000 72.220,162.000 72.000 C 162.000 71.778,160.933 71.600,159.600 71.600 C 158.267 71.600,157.200 71.422,157.200 71.200 C 157.200 70.937,147.392 70.800,128.576 70.800 C 109.596 70.800,100.036 70.935,100.200 71.200 M259.600 71.200 C 259.600 71.420,258.621 71.600,257.424 71.600 C 256.227 71.600,255.136 71.780,255.000 72.000 C 254.864 72.220,254.403 72.400,253.976 72.400 C 253.549 72.400,253.200 72.580,253.200 72.800 C 253.200 73.020,252.920 73.200,252.578 73.200 C 252.236 73.200,251.381 73.739,250.678 74.398 C 249.975 75.057,249.175 75.597,248.900 75.598 C 248.625 75.599,248.400 75.872,248.400 76.204 C 248.400 76.536,247.860 77.372,247.200 78.063 C 245.418 79.928,245.597 80.447,247.900 80.092 C 248.945 79.932,263.570 79.800,280.400 79.800 L 311.000 79.800 312.995 80.720 C 315.607 81.924,316.539 82.845,317.668 85.339 L 318.600 87.400 318.699 199.765 C 318.788 301.367,318.875 313.816,319.488 312.100 C 319.586 311.825,320.192 311.600,320.833 311.600 C 321.475 311.600,322.000 311.420,322.000 311.200 C 322.000 310.980,322.360 310.800,322.800 310.800 C 323.240 310.800,323.600 310.620,323.600 310.400 C 323.600 310.180,323.876 310.000,324.213 310.000 C 324.549 310.000,324.942 309.685,325.085 309.300 C 325.228 308.915,325.672 308.309,326.072 307.953 C 326.473 307.597,326.800 306.832,326.800 306.253 C 326.800 305.674,326.980 305.200,327.200 305.200 C 327.466 305.200,327.600 267.067,327.600 191.600 C 327.600 116.133,327.466 78.000,327.200 78.000 C 326.980 78.000,326.800 77.640,326.800 77.200 C 326.800 76.760,326.620 76.400,326.400 76.400 C 326.180 76.400,326.000 76.109,326.000 75.754 C 326.000 74.818,323.204 72.400,322.122 72.400 C 321.615 72.400,321.200 72.220,321.200 72.000 C 321.200 71.780,320.300 71.600,319.200 71.600 C 318.100 71.600,317.200 71.420,317.200 71.200 C 317.200 70.937,307.333 70.800,288.400 70.800 C 269.467 70.800,259.600 70.937,259.600 71.200 M155.468 192.265 C 155.321 192.413,155.200 219.323,155.200 252.067 L 155.200 311.600 157.000 311.600 C 157.990 311.600,158.800 311.420,158.800 311.200 C 158.800 310.980,159.076 310.800,159.413 310.800 C 159.751 310.800,160.606 310.214,161.313 309.497 C 162.474 308.322,162.880 307.657,164.063 305.000 C 164.466 304.096,164.200 238.540,163.713 218.600 L 163.400 205.800 161.543 202.600 C 160.521 200.840,158.797 197.734,157.710 195.699 C 156.624 193.663,155.615 192.118,155.468 192.265 M241.604 193.894 C 241.057 194.942,239.873 197.150,238.973 198.800 C 238.073 200.450,236.468 203.420,235.406 205.400 C 232.413 210.981,225.614 223.549,224.833 224.946 C 223.879 226.652,223.349 228.791,224.052 228.100 C 224.331 227.825,224.818 227.600,225.133 227.600 C 225.448 227.600,225.997 227.270,226.353 226.867 C 226.709 226.464,227.495 225.813,228.100 225.421 C 228.705 225.029,229.200 224.531,229.200 224.314 C 229.200 224.098,229.740 223.417,230.400 222.800 C 231.060 222.183,231.600 221.474,231.600 221.223 C 231.600 220.972,231.960 220.380,232.400 219.908 C 232.840 219.436,233.200 218.813,233.200 218.525 C 233.200 218.236,233.380 218.000,233.600 218.000 C 233.820 218.000,234.001 217.325,234.002 216.500 C 234.004 214.854,234.237 214.347,239.334 204.941 L 242.834 198.482 242.717 195.235 L 242.600 191.988 241.604 193.894 " stroke="none" fill="#05fafa" fill-rule="evenodd"></path><path id="path2" d="M88.700 80.691 C 87.875 80.778,87.200 81.017,87.200 81.224 C 87.200 81.431,86.912 81.600,86.560 81.600 C 85.747 81.600,83.200 84.122,83.200 84.927 C 83.200 85.260,82.975 85.608,82.700 85.700 C 81.982 85.939,81.728 307.830,82.441 311.400 C 83.205 315.221,84.198 316.652,87.200 318.253 C 88.989 319.208,148.800 319.836,148.800 318.900 C 148.800 318.625,149.160 318.400,149.600 318.400 C 150.040 318.400,150.400 318.220,150.400 318.000 C 150.400 317.780,150.578 317.600,150.795 317.600 C 151.404 317.600,152.800 316.285,152.800 315.711 C 152.800 315.430,152.980 315.200,153.200 315.200 C 153.420 315.200,153.600 314.855,153.600 314.433 C 153.600 314.012,153.825 313.592,154.100 313.500 C 154.496 313.368,154.642 300.588,154.800 252.100 C 154.910 218.422,155.135 190.731,155.300 190.567 C 155.695 190.172,155.650 190.109,157.603 193.800 C 158.534 195.560,159.791 197.900,160.395 199.000 C 161.000 200.100,162.123 202.170,162.892 203.600 C 166.000 209.380,167.360 211.899,168.453 213.900 C 169.084 215.055,170.140 216.990,170.800 218.200 C 171.460 219.410,172.518 221.345,173.150 222.500 C 173.783 223.655,174.806 225.540,175.424 226.690 C 177.996 231.479,180.706 234.066,184.800 235.645 C 189.775 237.563,214.216 236.927,216.000 234.833 C 216.110 234.704,216.650 234.355,217.200 234.056 C 217.750 233.758,218.920 232.636,219.800 231.563 C 220.680 230.490,221.601 229.376,221.847 229.088 C 222.093 228.799,222.430 228.121,222.596 227.581 C 222.762 227.042,223.030 226.420,223.191 226.200 C 223.352 225.980,224.164 224.540,224.995 223.000 C 225.826 221.460,227.000 219.300,227.605 218.200 C 228.209 217.100,229.467 214.760,230.400 213.000 C 231.333 211.240,232.591 208.900,233.195 207.800 C 233.800 206.700,234.948 204.585,235.747 203.100 C 243.394 188.888,242.665 190.132,243.100 190.567 C 243.265 190.732,243.504 217.897,243.631 250.933 C 243.758 283.970,244.010 311.630,244.190 312.400 C 244.715 314.639,246.235 316.669,248.291 317.878 L 250.200 319.000 281.100 319.116 C 302.311 319.196,312.000 319.102,312.000 318.816 C 312.000 318.587,312.360 318.400,312.800 318.400 C 313.240 318.400,313.600 318.220,313.600 318.000 C 313.600 317.780,313.861 317.600,314.180 317.600 C 314.793 317.600,316.800 315.223,316.800 314.496 C 316.800 314.260,317.025 313.992,317.300 313.900 C 317.980 313.673,318.277 90.274,317.600 87.800 C 316.431 83.522,315.230 82.302,310.772 80.861 C 306.007 79.322,244.800 80.461,244.800 82.089 C 244.800 82.260,244.537 82.400,244.215 82.400 C 242.848 82.400,239.194 86.826,236.811 91.368 C 235.896 93.110,234.620 95.495,233.974 96.668 C 233.328 97.841,232.260 99.790,231.600 101.000 C 230.940 102.210,229.860 104.190,229.200 105.400 C 228.540 106.610,227.460 108.590,226.800 109.800 C 226.140 111.010,225.085 112.945,224.456 114.100 C 222.715 117.295,221.110 120.217,218.800 124.400 C 217.646 126.490,216.159 129.190,215.495 130.400 C 214.832 131.610,213.867 133.366,213.352 134.301 C 212.836 135.237,211.480 137.757,210.337 139.901 C 205.457 149.058,204.311 150.200,200.000 150.200 C 195.958 150.200,194.851 149.281,191.447 143.100 C 190.871 142.055,189.925 140.345,189.344 139.300 C 187.925 136.746,186.596 134.353,185.457 132.300 C 184.938 131.365,184.158 129.970,183.725 129.200 C 183.291 128.430,182.160 126.360,181.212 124.600 C 180.264 122.840,179.358 121.220,179.200 121.000 C 179.042 120.780,178.136 119.160,177.188 117.400 C 176.240 115.640,175.109 113.570,174.675 112.800 C 174.242 112.030,173.462 110.635,172.943 109.700 C 172.425 108.765,171.575 107.235,171.057 106.300 C 170.538 105.365,169.758 103.970,169.325 103.200 C 168.891 102.430,167.753 100.360,166.797 98.600 C 165.840 96.840,164.550 94.537,163.929 93.482 C 163.308 92.428,162.800 91.475,162.800 91.364 C 162.800 88.994,156.062 82.383,152.500 81.259 C 149.948 80.454,95.594 79.970,88.700 80.691 " stroke="none" fill="#042c54" fill-rule="evenodd"></path><path id="path3" d="M236.749 90.100 C 236.334 90.880,232.235 98.366,228.810 104.600 C 228.206 105.700,227.171 107.590,226.511 108.800 C 225.851 110.010,224.771 111.990,224.111 113.200 C 223.451 114.410,222.371 116.390,221.711 117.600 C 221.051 118.810,219.971 120.790,219.311 122.000 C 218.651 123.210,217.570 125.190,216.908 126.400 C 216.247 127.610,215.027 129.860,214.198 131.400 C 213.370 132.940,212.536 134.371,212.346 134.580 C 212.156 134.789,212.000 135.140,212.000 135.360 C 212.000 136.242,218.235 125.199,226.318 110.000 C 227.078 108.570,227.921 107.040,228.191 106.600 C 228.461 106.160,229.636 104.000,230.802 101.800 C 231.968 99.600,233.053 97.620,233.212 97.400 C 233.892 96.458,237.637 89.200,237.442 89.200 C 237.325 89.200,237.013 89.605,236.749 90.100 M210.640 137.840 C 210.062 138.875,209.660 139.794,209.748 139.882 C 209.836 139.970,210.382 139.195,210.960 138.160 C 211.538 137.125,211.940 136.206,211.852 136.118 C 211.764 136.030,211.218 136.805,210.640 137.840 M164.800 208.550 C 164.800 208.926,166.910 212.423,167.052 212.282 C 167.227 212.107,165.235 208.400,164.966 208.400 C 164.875 208.400,164.800 208.467,164.800 208.550 M167.200 212.871 C 167.200 212.999,167.979 214.520,168.930 216.251 C 169.882 217.983,171.434 220.840,172.379 222.600 C 175.981 229.310,177.493 231.592,179.600 233.498 C 180.853 234.633,185.265 236.807,186.257 236.779 C 186.666 236.768,186.010 236.381,184.800 235.921 C 179.128 233.761,178.002 232.330,169.604 216.600 C 167.988 213.573,167.200 212.351,167.200 212.871 M212.000 236.400 C 211.503 236.721,211.538 236.788,212.200 236.788 C 212.640 236.788,213.270 236.613,213.600 236.400 C 214.097 236.079,214.062 236.012,213.400 236.012 C 212.960 236.012,212.330 236.187,212.000 236.400 M188.223 237.253 C 188.870 237.392,193.810 237.505,199.200 237.505 C 204.590 237.505,209.530 237.392,210.177 237.253 C 210.825 237.114,205.885 237.000,199.200 237.000 C 192.515 237.000,187.575 237.114,188.223 237.253 M243.241 310.323 C 243.089 313.750,247.944 320.590,249.455 319.078 C 249.555 318.979,248.953 318.544,248.118 318.113 C 246.092 317.067,244.418 314.600,243.793 311.740 C 243.512 310.453,243.264 309.815,243.241 310.323 M81.668 311.000 C 81.662 311.660,81.811 312.560,82.000 313.000 C 82.470 314.094,82.470 312.267,82.000 310.800 C 81.688 309.825,81.679 309.830,81.668 311.000 M82.424 314.109 C 82.324 315.419,87.109 319.824,87.839 319.094 C 87.942 318.992,87.479 318.681,86.811 318.405 C 85.668 317.931,83.999 316.281,82.924 314.562 C 82.661 314.143,82.436 313.939,82.424 314.109 M89.420 319.653 C 91.110 320.015,146.400 320.060,146.400 319.700 C 146.400 319.535,133.314 319.400,117.320 319.400 C 101.326 319.400,88.771 319.514,89.420 319.653 M251.275 319.660 C 252.578 320.027,309.600 320.066,309.600 319.700 C 309.600 319.535,296.269 319.400,279.975 319.400 C 263.681 319.400,250.766 319.517,251.275 319.660 " stroke="none" fill="#5d1894" fill-rule="evenodd"></path><path id="path4" d="M88.447 80.255 C 87.969 80.795,87.991 80.860,88.614 80.739 C 89.010 80.663,89.409 80.375,89.500 80.100 C 89.730 79.410,89.116 79.500,88.447 80.255 M86.400 80.800 C 86.400 81.020,85.971 81.200,85.447 81.200 C 84.830 81.200,84.419 81.482,84.284 82.000 C 84.169 82.440,83.788 82.800,83.437 82.800 C 83.024 82.800,82.800 83.152,82.800 83.800 C 82.800 84.350,82.620 84.800,82.400 84.800 C 82.180 84.800,82.000 84.980,82.000 85.200 C 82.000 86.073,82.762 85.522,83.487 84.126 C 83.931 83.269,84.869 82.331,85.726 81.887 C 87.122 81.162,87.673 80.400,86.800 80.400 C 86.580 80.400,86.400 80.580,86.400 80.800 M245.200 80.800 C 245.200 81.020,244.880 81.200,244.488 81.200 C 244.097 81.200,243.517 81.560,243.200 82.000 C 242.883 82.440,242.387 82.800,242.098 82.800 C 241.369 82.800,238.800 85.438,238.800 86.187 C 238.800 86.524,238.590 86.800,238.333 86.800 C 238.077 86.800,237.982 86.916,238.124 87.057 C 238.512 87.446,239.629 86.371,239.334 85.893 C 239.192 85.664,239.254 85.586,239.472 85.721 C 239.689 85.855,240.662 85.143,241.634 84.137 C 242.605 83.131,243.985 82.057,244.700 81.749 C 245.927 81.221,246.474 80.400,245.600 80.400 C 245.380 80.400,245.200 80.580,245.200 80.800 M82.000 86.624 C 82.000 86.967,81.820 87.136,81.600 87.000 C 81.380 86.864,81.200 87.033,81.200 87.376 C 81.200 87.719,81.470 88.000,81.800 88.000 C 82.173 88.000,82.400 87.622,82.400 87.000 C 82.400 86.450,82.310 86.000,82.200 86.000 C 82.090 86.000,82.000 86.281,82.000 86.624 M237.200 88.449 C 237.200 89.158,237.299 89.216,237.800 88.800 C 238.130 88.526,238.400 88.144,238.400 87.951 C 238.400 87.758,238.130 87.600,237.800 87.600 C 237.455 87.600,237.200 87.961,237.200 88.449 M222.470 228.526 C 221.991 229.035,221.600 229.626,221.600 229.839 C 221.600 230.523,217.452 234.252,215.917 234.949 C 214.269 235.696,213.619 236.400,214.576 236.400 C 214.919 236.400,215.200 236.220,215.200 236.000 C 215.200 235.780,215.542 235.600,215.959 235.600 C 216.830 235.600,222.800 229.934,222.800 229.107 C 222.800 228.806,223.016 228.344,223.280 228.080 C 223.544 227.816,223.665 227.600,223.550 227.600 C 223.434 227.600,222.948 228.017,222.470 228.526 M317.778 311.778 C 317.627 312.581,317.604 313.337,317.726 313.460 C 317.848 313.582,318.072 313.025,318.222 312.222 C 318.373 311.419,318.396 310.663,318.274 310.540 C 318.152 310.418,317.928 310.975,317.778 311.778 M153.437 315.000 C 153.076 315.550,152.898 316.000,153.040 316.000 C 153.716 316.000,152.079 317.326,150.535 318.030 C 148.800 318.820,148.248 319.600,149.424 319.600 C 149.767 319.600,149.936 319.420,149.800 319.200 C 149.664 318.980,149.929 318.800,150.390 318.800 C 151.357 318.800,154.000 316.321,154.000 315.413 C 154.000 315.076,154.180 314.800,154.400 314.800 C 154.620 314.800,154.800 314.620,154.800 314.400 C 154.800 313.676,154.104 313.982,153.437 315.000 M315.762 316.855 C 315.343 317.326,314.415 317.958,313.700 318.261 C 312.475 318.779,311.923 319.600,312.800 319.600 C 313.020 319.600,313.200 319.420,313.200 319.200 C 313.200 318.980,313.476 318.800,313.813 318.800 C 314.151 318.800,315.057 318.170,315.827 317.400 C 316.597 316.630,317.069 316.000,316.875 316.000 C 316.682 316.000,316.181 316.385,315.762 316.855 " stroke="none" fill="#326c8a" fill-rule="evenodd"></path><path id="path5" d="M81.797 199.800 C 81.797 260.520,81.843 285.300,81.900 254.868 C 81.957 224.435,81.957 174.755,81.900 144.468 C 81.843 114.180,81.797 139.080,81.797 199.800 M232.640 98.398 C 232.040 99.499,231.636 100.400,231.741 100.400 C 232.008 100.400,234.043 96.710,233.871 96.537 C 233.793 96.460,233.239 97.297,232.640 98.398 M227.840 107.198 C 227.240 108.299,226.836 109.200,226.941 109.200 C 227.208 109.200,229.243 105.510,229.071 105.337 C 228.993 105.260,228.439 106.097,227.840 107.198 M223.040 115.998 C 222.440 117.099,222.036 118.000,222.141 118.000 C 222.408 118.000,224.443 114.310,224.271 114.137 C 224.193 114.060,223.639 114.897,223.040 115.998 M220.640 120.398 C 220.040 121.499,219.636 122.400,219.741 122.400 C 220.008 122.400,222.043 118.710,221.871 118.537 C 221.793 118.460,221.239 119.297,220.640 120.398 M218.000 125.200 C 217.551 126.080,217.274 126.800,217.384 126.800 C 217.494 126.800,217.951 126.080,218.400 125.200 C 218.849 124.320,219.126 123.600,219.016 123.600 C 218.906 123.600,218.449 124.320,218.000 125.200 M243.394 254.400 C 243.394 284.870,243.442 297.335,243.500 282.100 C 243.558 266.865,243.558 241.935,243.500 226.700 C 243.442 211.465,243.394 223.930,243.394 254.400 M171.840 220.802 C 172.439 221.903,172.993 222.740,173.071 222.663 C 173.243 222.490,171.208 218.800,170.941 218.800 C 170.836 218.800,171.240 219.701,171.840 220.802 M174.240 225.202 C 174.839 226.303,175.393 227.140,175.471 227.063 C 175.643 226.890,173.608 223.200,173.341 223.200 C 173.236 223.200,173.640 224.101,174.240 225.202 M176.277 228.831 C 176.675 229.508,177.256 230.273,177.568 230.531 C 177.880 230.789,177.632 230.235,177.015 229.300 C 175.720 227.337,175.209 227.012,176.277 228.831 M178.600 231.966 C 179.378 232.861,181.600 234.598,181.600 234.312 C 181.600 234.234,180.745 233.467,179.700 232.608 C 178.655 231.749,178.160 231.460,178.600 231.966 M187.500 236.682 C 187.995 236.778,188.805 236.778,189.300 236.682 C 189.795 236.587,189.390 236.509,188.400 236.509 C 187.410 236.509,187.005 236.587,187.500 236.682 M209.100 236.682 C 209.595 236.778,210.405 236.778,210.900 236.682 C 211.395 236.587,210.990 236.509,210.000 236.509 C 209.010 236.509,208.605 236.587,209.100 236.682 M194.900 237.098 C 197.265 237.169,201.135 237.169,203.500 237.098 C 205.865 237.028,203.930 236.970,199.200 236.970 C 194.470 236.970,192.535 237.028,194.900 237.098 M243.862 311.800 C 243.996 312.680,244.172 313.475,244.253 313.567 C 244.556 313.910,244.329 311.768,243.981 311.000 C 243.729 310.442,243.693 310.685,243.862 311.800 M82.400 312.976 C 82.400 313.513,82.547 314.044,82.728 314.155 C 82.908 314.267,82.977 313.827,82.882 313.179 C 82.672 311.749,82.400 311.635,82.400 312.976 M84.401 316.539 C 85.734 318.059,88.066 319.211,89.684 319.150 C 90.953 319.102,90.943 319.090,89.400 318.828 C 87.497 318.505,86.224 317.874,84.601 316.451 L 83.403 315.400 84.401 316.539 M246.785 317.171 C 247.547 317.847,248.342 318.400,248.552 318.400 C 248.762 318.400,248.858 318.348,248.767 318.284 C 248.675 318.220,247.880 317.667,247.000 317.055 L 245.400 315.942 246.785 317.171 M249.560 318.920 C 249.746 319.106,250.506 319.196,251.249 319.119 C 252.567 318.983,252.558 318.975,250.910 318.780 C 249.981 318.671,249.373 318.733,249.560 318.920 M104.900 319.500 C 112.325 319.561,124.475 319.561,131.900 319.500 C 139.325 319.439,133.250 319.389,118.400 319.389 C 103.550 319.389,97.475 319.439,104.900 319.500 M266.900 319.500 C 274.545 319.561,287.055 319.561,294.700 319.500 C 302.345 319.439,296.090 319.389,280.800 319.389 C 265.510 319.389,259.255 319.439,266.900 319.500 " stroke="none" fill="#3c1c7c" fill-rule="evenodd"></path><path id="path6" d="M157.200 71.200 C 157.200 71.420,157.571 71.600,158.024 71.600 C 158.477 71.600,158.736 71.420,158.600 71.200 C 158.464 70.980,158.093 70.800,157.776 70.800 C 157.459 70.800,157.200 70.980,157.200 71.200 M92.100 73.798 C 91.357 74.642,91.494 74.873,92.400 74.307 C 92.840 74.032,93.200 73.671,93.200 73.504 C 93.200 73.027,92.649 73.175,92.100 73.798 M249.660 74.642 C 249.362 74.978,249.199 75.332,249.295 75.429 C 249.392 75.526,249.798 75.244,250.198 74.802 C 250.597 74.361,250.761 74.007,250.562 74.015 C 250.363 74.024,249.957 74.305,249.660 74.642 M87.000 80.000 C 86.864 80.220,87.123 80.400,87.576 80.400 C 88.029 80.400,88.400 80.220,88.400 80.000 C 88.400 79.780,88.141 79.600,87.824 79.600 C 87.507 79.600,87.136 79.780,87.000 80.000 M327.797 191.600 C 327.797 251.330,327.843 275.765,327.900 245.900 C 327.957 216.035,327.957 167.165,327.900 137.300 C 327.843 107.435,327.797 131.870,327.797 191.600 M81.412 85.717 C 81.241 86.112,81.213 86.547,81.351 86.684 C 81.757 87.090,82.084 86.520,81.897 85.731 C 81.732 85.033,81.710 85.032,81.412 85.717 M79.000 88.000 C 78.853 88.239,79.337 88.400,80.200 88.400 C 81.063 88.400,81.547 88.239,81.400 88.000 C 81.264 87.780,80.724 87.600,80.200 87.600 C 79.676 87.600,79.136 87.780,79.000 88.000 M75.032 90.232 C 73.303 91.960,72.705 93.200,73.600 93.200 C 73.820 93.200,74.000 93.006,74.000 92.769 C 74.000 92.110,77.086 89.200,77.784 89.200 C 78.123 89.200,78.400 89.020,78.400 88.800 C 78.400 87.832,76.715 88.548,75.032 90.232 M235.800 88.800 C 235.664 89.020,235.290 89.200,234.969 89.200 C 234.314 89.200,229.200 94.158,229.200 94.793 C 229.200 95.527,229.584 95.233,232.060 92.600 C 233.405 91.170,234.752 90.000,235.053 90.000 C 235.354 90.000,235.600 89.799,235.600 89.553 C 235.600 89.304,235.953 89.199,236.400 89.316 C 236.920 89.452,237.200 89.328,237.200 88.963 C 237.200 88.319,236.171 88.199,235.800 88.800 M72.667 94.267 C 72.245 94.688,72.356 96.800,72.800 96.800 C 73.020 96.800,73.200 96.170,73.200 95.400 C 73.200 93.961,73.127 93.806,72.667 94.267 M228.271 96.300 C 227.975 97.236,226.676 99.366,226.300 99.533 C 226.135 99.607,226.000 100.012,226.000 100.433 C 226.000 100.855,225.820 101.200,225.600 101.200 C 225.380 101.200,225.200 101.470,225.200 101.800 C 225.200 102.130,225.380 102.400,225.600 102.400 C 225.820 102.400,226.000 102.130,226.000 101.800 C 226.000 101.470,226.146 101.200,226.325 101.200 C 226.504 101.200,226.898 100.570,227.200 99.800 C 227.502 99.030,227.896 98.400,228.075 98.400 C 228.254 98.400,228.400 98.040,228.400 97.600 C 228.400 97.160,228.580 96.800,228.800 96.800 C 229.020 96.800,229.200 96.530,229.200 96.200 C 229.200 95.373,228.543 95.444,228.271 96.300 M224.400 103.400 C 224.400 103.730,224.580 104.000,224.800 104.000 C 225.020 104.000,225.200 103.730,225.200 103.400 C 225.200 103.070,225.020 102.800,224.800 102.800 C 224.580 102.800,224.400 103.070,224.400 103.400 M223.471 105.100 C 223.175 106.036,221.876 108.166,221.500 108.333 C 221.335 108.407,221.200 108.812,221.200 109.233 C 221.200 109.655,221.020 110.000,220.800 110.000 C 220.580 110.000,220.400 110.270,220.400 110.600 C 220.400 110.930,220.580 111.200,220.800 111.200 C 221.020 111.200,221.200 110.930,221.200 110.600 C 221.200 110.270,221.346 110.000,221.525 110.000 C 221.704 110.000,222.098 109.370,222.400 108.600 C 222.702 107.830,223.096 107.200,223.275 107.200 C 223.454 107.200,223.600 106.840,223.600 106.400 C 223.600 105.960,223.780 105.600,224.000 105.600 C 224.220 105.600,224.400 105.330,224.400 105.000 C 224.400 104.173,223.743 104.244,223.471 105.100 M219.360 112.503 C 218.178 114.911,216.970 117.013,216.700 117.133 C 216.535 117.207,216.400 117.612,216.400 118.033 C 216.400 118.455,216.220 118.800,216.000 118.800 C 215.780 118.800,215.600 119.070,215.600 119.400 C 215.600 119.730,215.780 120.000,216.000 120.000 C 216.220 120.000,216.400 119.730,216.400 119.400 C 216.400 119.070,216.580 118.800,216.800 118.800 C 217.020 118.800,217.200 118.440,217.200 118.000 C 217.200 117.560,217.380 117.200,217.600 117.200 C 217.820 117.200,218.000 116.930,218.000 116.600 C 218.000 116.270,218.180 116.000,218.400 116.000 C 218.620 116.000,218.800 115.640,218.800 115.200 C 218.800 114.760,218.980 114.400,219.200 114.400 C 219.420 114.400,219.600 114.040,219.600 113.600 C 219.600 113.160,219.780 112.800,220.000 112.800 C 220.220 112.800,220.400 112.530,220.400 112.200 C 220.400 111.319,219.865 111.475,219.360 112.503 M214.800 121.000 C 214.800 121.330,214.980 121.600,215.200 121.600 C 215.420 121.600,215.600 121.330,215.600 121.000 C 215.600 120.670,215.420 120.400,215.200 120.400 C 214.980 120.400,214.800 120.670,214.800 121.000 M213.871 122.700 C 213.575 123.636,212.276 125.766,211.900 125.933 C 211.735 126.007,211.600 126.412,211.600 126.833 C 211.600 127.255,211.420 127.600,211.200 127.600 C 210.980 127.600,210.800 127.870,210.800 128.200 C 210.800 128.530,210.980 128.800,211.200 128.800 C 211.420 128.800,211.600 128.530,211.600 128.200 C 211.600 127.870,211.780 127.600,212.000 127.600 C 212.220 127.600,212.400 127.240,212.400 126.800 C 212.400 126.360,212.546 126.000,212.725 126.000 C 212.904 126.000,213.298 125.370,213.600 124.600 C 213.902 123.830,214.296 123.200,214.475 123.200 C 214.654 123.200,214.800 122.930,214.800 122.600 C 214.800 121.773,214.143 121.844,213.871 122.700 M210.000 129.800 C 210.000 130.130,210.180 130.400,210.400 130.400 C 210.620 130.400,210.800 130.130,210.800 129.800 C 210.800 129.470,210.620 129.200,210.400 129.200 C 210.180 129.200,210.000 129.470,210.000 129.800 M209.071 131.500 C 208.775 132.436,207.476 134.566,207.100 134.733 C 206.653 134.932,206.737 136.000,207.200 136.000 C 207.420 136.000,207.600 135.730,207.600 135.400 C 207.600 135.070,207.780 134.800,208.000 134.800 C 208.220 134.800,208.400 134.440,208.400 134.000 C 208.400 133.560,208.580 133.200,208.800 133.200 C 209.020 133.200,209.200 132.930,209.200 132.600 C 209.200 132.270,209.380 132.000,209.600 132.000 C 209.820 132.000,210.000 131.730,210.000 131.400 C 210.000 130.573,209.343 130.644,209.071 131.500 M204.400 139.924 C 204.400 140.730,205.535 141.523,207.000 141.740 C 208.093 141.902,208.410 141.856,208.000 141.595 C 207.670 141.384,207.007 141.209,206.527 141.206 C 206.009 141.202,205.551 140.875,205.400 140.400 C 205.154 139.626,204.400 139.267,204.400 139.924 M240.195 203.319 C 235.128 212.729,234.001 215.009,234.028 215.791 C 234.047 216.335,234.226 216.142,234.576 215.200 C 234.862 214.430,235.548 212.990,236.100 212.000 C 238.812 207.140,240.800 203.489,240.800 203.369 C 240.800 203.295,241.332 202.333,241.982 201.230 C 242.632 200.127,243.035 199.145,242.877 199.048 C 242.720 198.950,241.513 200.872,240.195 203.319 M163.605 218.633 C 163.611 230.036,163.737 232.000,164.461 232.000 C 164.665 232.000,164.639 231.646,164.403 231.205 C 164.128 230.692,163.990 226.351,164.012 218.962 C 164.031 212.666,163.947 207.413,163.824 207.290 C 163.701 207.167,163.602 212.272,163.605 218.633 M233.102 218.733 C 232.985 219.180,233.123 219.467,233.455 219.467 C 233.755 219.467,234.000 219.137,234.000 218.733 C 234.000 218.330,233.841 218.000,233.647 218.000 C 233.452 218.000,233.207 218.330,233.102 218.733 M229.700 223.398 C 229.131 224.045,229.061 224.400,229.504 224.400 C 229.671 224.400,230.032 224.040,230.307 223.600 C 230.878 222.687,230.451 222.545,229.700 223.398 M227.429 225.829 C 227.005 226.138,226.736 226.469,226.830 226.563 C 226.924 226.657,227.348 226.481,227.771 226.171 C 228.195 225.862,228.464 225.531,228.370 225.437 C 228.276 225.343,227.852 225.519,227.429 225.829 M221.660 230.642 C 221.362 230.978,221.199 231.332,221.295 231.429 C 221.392 231.526,221.798 231.244,222.198 230.802 C 222.597 230.361,222.761 230.007,222.562 230.015 C 222.363 230.024,221.957 230.305,221.660 230.642 M164.464 244.100 L 164.529 255.400 164.824 245.614 C 165.020 239.087,165.265 235.778,165.559 235.680 C 166.110 235.497,166.144 234.400,165.600 234.400 C 165.380 234.400,165.200 234.040,165.200 233.600 C 165.200 233.160,165.020 232.800,164.800 232.800 C 164.541 232.800,164.423 236.790,164.464 244.100 M217.660 234.642 C 217.362 234.978,217.199 235.332,217.295 235.429 C 217.392 235.526,217.798 235.244,218.198 234.802 C 218.597 234.361,218.761 234.007,218.562 234.015 C 218.363 234.024,217.957 234.305,217.660 234.642 M166.000 236.429 C 166.000 236.980,167.172 238.161,167.447 237.887 C 167.706 237.627,166.720 236.000,166.304 236.000 C 166.137 236.000,166.000 236.193,166.000 236.429 M211.705 239.700 C 210.800 240.635,209.598 241.760,209.034 242.200 C 207.968 243.031,207.711 243.600,208.400 243.600 C 208.767 243.600,212.249 240.268,213.549 238.673 C 214.676 237.292,213.291 238.063,211.705 239.700 M167.600 238.835 C 167.600 239.340,171.939 243.600,172.454 243.600 C 173.175 243.600,172.712 242.930,170.451 240.700 C 168.087 238.370,167.600 238.051,167.600 238.835 M173.200 243.771 C 173.200 244.094,175.724 245.200,176.461 245.200 C 176.868 245.200,177.200 245.020,177.200 244.800 C 177.200 244.580,176.660 244.400,176.000 244.400 C 175.340 244.400,174.800 244.220,174.800 244.000 C 174.800 243.780,174.440 243.600,174.000 243.600 C 173.560 243.600,173.200 243.677,173.200 243.771 M206.400 244.000 C 206.400 244.220,206.670 244.400,207.000 244.400 C 207.330 244.400,207.600 244.220,207.600 244.000 C 207.600 243.780,207.330 243.600,207.000 243.600 C 206.670 243.600,206.400 243.780,206.400 244.000 M204.000 244.800 C 204.000 245.020,204.450 245.200,205.000 245.200 C 205.550 245.200,206.000 245.020,206.000 244.800 C 206.000 244.580,205.550 244.400,205.000 244.400 C 204.450 244.400,204.000 244.580,204.000 244.800 M178.000 245.600 C 178.000 245.820,178.810 246.000,179.800 246.000 C 180.790 246.000,181.600 245.820,181.600 245.600 C 181.600 245.380,180.790 245.200,179.800 245.200 C 178.810 245.200,178.000 245.380,178.000 245.600 M200.000 245.600 C 200.000 245.820,200.619 246.000,201.376 246.000 C 202.133 246.000,202.864 245.820,203.000 245.600 C 203.149 245.358,202.604 245.200,201.624 245.200 C 200.731 245.200,200.000 245.380,200.000 245.600 M154.954 312.177 C 154.832 312.494,154.818 313.079,154.924 313.477 C 155.091 314.109,155.152 314.086,155.404 313.300 C 155.563 312.805,155.852 312.400,156.047 312.400 C 156.241 312.400,156.400 312.220,156.400 312.000 C 156.400 311.382,155.203 311.528,154.954 312.177 M152.460 317.451 C 151.943 318.002,151.596 318.529,151.689 318.622 C 151.782 318.715,152.374 318.254,153.004 317.596 C 153.634 316.938,153.981 316.411,153.775 316.424 C 153.569 316.438,152.977 316.900,152.460 317.451 M315.660 317.451 C 315.143 318.002,314.809 318.542,314.917 318.651 C 315.109 318.842,317.200 316.947,317.200 316.582 C 317.200 316.146,316.529 316.524,315.660 317.451 M72.400 320.376 C 72.400 321.023,72.580 321.664,72.800 321.800 C 73.038 321.947,73.200 321.471,73.200 320.624 C 73.200 319.841,73.020 319.200,72.800 319.200 C 72.580 319.200,72.400 319.729,72.400 320.376 M234.000 320.376 C 234.000 321.023,234.180 321.664,234.400 321.800 C 234.638 321.947,234.800 321.471,234.800 320.624 C 234.800 319.841,234.620 319.200,234.400 319.200 C 234.180 319.200,234.000 319.729,234.000 320.376 M146.154 320.177 C 146.032 320.494,146.018 321.079,146.124 321.477 C 146.291 322.109,146.352 322.086,146.604 321.300 C 146.764 320.801,147.219 320.400,147.623 320.400 C 148.024 320.400,148.464 320.220,148.600 320.000 C 148.744 319.766,148.333 319.600,147.611 319.600 C 146.904 319.600,146.280 319.847,146.154 320.177 M309.600 319.915 C 309.600 320.390,311.910 320.469,312.197 320.004 C 312.348 319.761,311.881 319.600,311.024 319.600 C 310.241 319.600,309.600 319.742,309.600 319.915 M309.200 321.624 C 309.200 322.077,309.380 322.336,309.600 322.200 C 309.820 322.064,310.000 321.693,310.000 321.376 C 310.000 321.059,309.820 320.800,309.600 320.800 C 309.380 320.800,309.200 321.171,309.200 321.624 M73.200 323.000 C 73.200 323.330,73.380 323.600,73.600 323.600 C 73.820 323.600,74.000 323.330,74.000 323.000 C 74.000 322.670,73.820 322.400,73.600 322.400 C 73.380 322.400,73.200 322.670,73.200 323.000 M234.800 323.000 C 234.800 323.330,234.980 323.600,235.200 323.600 C 235.420 323.600,235.600 323.330,235.600 323.000 C 235.600 322.670,235.420 322.400,235.200 322.400 C 234.980 322.400,234.800 322.670,234.800 323.000 M308.400 323.181 C 308.400 323.390,307.770 324.173,307.000 324.921 C 306.230 325.669,305.600 326.398,305.600 326.540 C 305.600 327.169,306.533 326.694,307.813 325.413 C 309.149 324.078,309.631 322.800,308.800 322.800 C 308.580 322.800,308.400 322.971,308.400 323.181 M74.000 324.453 C 74.000 324.932,75.989 326.799,76.500 326.800 C 77.051 326.800,76.810 326.348,75.631 325.169 C 74.368 323.907,74.000 323.745,74.000 324.453 M235.600 324.345 C 235.600 324.899,237.656 326.800,238.255 326.800 C 238.555 326.800,238.800 326.980,238.800 327.200 C 238.800 327.420,239.160 327.600,239.600 327.600 C 240.040 327.600,240.400 327.420,240.400 327.200 C 240.400 326.980,240.040 326.800,239.600 326.800 C 239.160 326.800,238.800 326.620,238.800 326.400 C 238.800 326.180,238.611 326.000,238.381 326.000 C 238.150 326.000,237.545 325.550,237.035 325.000 C 236.076 323.965,235.600 323.748,235.600 324.345 M143.421 325.346 C 142.329 326.357,142.146 326.800,142.818 326.800 C 143.247 326.800,145.200 325.011,145.200 324.618 C 145.200 324.123,144.377 324.459,143.421 325.346 M77.200 327.200 C 77.200 327.420,77.459 327.600,77.776 327.600 C 78.093 327.600,78.464 327.420,78.600 327.200 C 78.736 326.980,78.477 326.800,78.024 326.800 C 77.571 326.800,77.200 326.980,77.200 327.200 M140.800 327.200 C 140.800 327.420,141.070 327.600,141.400 327.600 C 141.730 327.600,142.000 327.420,142.000 327.200 C 142.000 326.980,141.730 326.800,141.400 326.800 C 141.070 326.800,140.800 326.980,140.800 327.200 M304.000 327.200 C 304.000 327.420,304.270 327.600,304.600 327.600 C 304.930 327.600,305.200 327.420,305.200 327.200 C 305.200 326.980,304.930 326.800,304.600 326.800 C 304.270 326.800,304.000 326.980,304.000 327.200 M79.600 328.000 C 79.600 328.220,80.500 328.400,81.600 328.400 C 82.700 328.400,83.600 328.220,83.600 328.000 C 83.600 327.780,82.700 327.600,81.600 327.600 C 80.500 327.600,79.600 327.780,79.600 328.000 M135.800 328.000 C 135.936 328.220,136.836 328.400,137.800 328.400 C 138.764 328.400,139.664 328.220,139.800 328.000 C 139.954 327.751,139.196 327.600,137.800 327.600 C 136.404 327.600,135.646 327.751,135.800 328.000 M241.400 328.000 C 241.536 328.220,242.447 328.400,243.424 328.400 C 244.401 328.400,245.200 328.220,245.200 328.000 C 245.200 327.780,244.289 327.600,243.176 327.600 C 241.929 327.600,241.248 327.753,241.400 328.000 M299.200 328.000 C 299.200 328.220,300.089 328.400,301.176 328.400 C 302.263 328.400,303.264 328.220,303.400 328.000 C 303.553 327.752,302.804 327.600,301.424 327.600 C 300.201 327.600,299.200 327.780,299.200 328.000 " stroke="none" fill="#847cfc" fill-rule="evenodd"></path><path id="path7" d="M105.100 79.900 C 113.295 79.960,126.705 79.960,134.900 79.900 C 143.095 79.839,136.390 79.790,120.000 79.790 C 103.610 79.790,96.905 79.839,105.100 79.900 M264.700 79.900 C 272.895 79.960,286.305 79.960,294.500 79.900 C 302.695 79.839,295.990 79.790,279.600 79.790 C 263.210 79.790,256.505 79.839,264.700 79.900 M151.400 80.400 C 152.596 80.914,153.595 80.914,152.800 80.400 C 152.470 80.187,151.840 80.022,151.400 80.034 L 150.600 80.056 151.400 80.400 M246.600 80.400 L 245.800 80.744 246.600 80.732 C 247.040 80.726,247.850 80.576,248.400 80.400 L 249.400 80.080 248.400 80.068 C 247.850 80.062,247.040 80.211,246.600 80.400 M311.522 80.621 C 315.117 81.751,316.648 83.287,317.789 86.909 C 318.081 87.839,318.335 88.240,318.352 87.800 C 318.476 84.555,313.824 79.900,310.600 80.043 C 310.160 80.063,310.575 80.323,311.522 80.621 M153.600 80.981 C 153.600 81.081,154.226 81.459,154.990 81.822 C 155.755 82.185,157.573 83.747,159.032 85.293 C 160.490 86.839,161.461 87.688,161.190 87.181 C 159.931 84.828,153.600 79.657,153.600 80.981 M162.701 90.400 C 163.373 91.610,164.269 93.230,164.692 94.000 C 167.530 99.163,168.511 100.822,168.647 100.687 C 168.839 100.494,162.526 89.151,161.921 88.601 C 161.678 88.380,162.030 89.190,162.701 90.400 M318.597 199.800 C 318.597 260.300,318.643 284.990,318.700 254.668 C 318.757 224.345,318.757 174.845,318.700 144.668 C 318.643 114.490,318.597 139.300,318.597 199.800 M168.867 101.509 C 169.422 102.794,172.517 108.016,172.647 107.886 C 172.834 107.700,169.215 101.200,168.924 101.200 C 168.819 101.200,168.793 101.339,168.867 101.509 M172.800 108.582 C 172.800 108.683,173.340 109.681,174.000 110.800 C 174.660 111.919,175.204 112.962,175.209 113.118 C 175.214 113.273,175.587 113.850,176.038 114.400 C 177.160 115.766,176.900 115.120,174.872 111.491 C 173.335 108.741,172.800 107.990,172.800 108.582 M176.800 115.702 C 176.800 115.847,177.340 116.881,178.000 118.000 C 178.660 119.119,179.204 120.162,179.209 120.318 C 179.214 120.473,179.592 121.050,180.048 121.600 C 180.505 122.150,180.120 121.160,179.192 119.400 C 177.578 116.339,176.800 115.136,176.800 115.702 M180.800 122.902 C 180.800 123.047,181.340 124.081,182.000 125.200 C 182.660 126.319,183.200 127.303,183.200 127.386 C 183.200 127.469,184.100 129.095,185.200 131.000 C 186.300 132.905,187.200 134.531,187.200 134.614 C 187.200 134.697,187.708 135.628,188.329 136.682 C 188.950 137.737,190.238 140.040,191.191 141.800 C 194.220 147.393,195.894 149.561,197.200 149.586 C 197.530 149.592,197.238 149.254,196.552 148.836 C 195.086 147.942,194.287 146.652,186.994 133.400 C 181.815 123.989,180.800 122.269,180.800 122.902 M207.775 142.863 C 206.389 145.576,204.277 148.439,203.253 148.996 C 202.674 149.310,202.470 149.569,202.800 149.571 C 203.130 149.573,203.680 149.355,204.021 149.087 C 205.229 148.141,209.026 142.092,208.649 141.716 C 208.545 141.611,208.151 142.127,207.775 142.863 M199.100 149.882 C 199.595 149.978,200.405 149.978,200.900 149.882 C 201.395 149.787,200.990 149.709,200.000 149.709 C 199.010 149.709,198.605 149.787,199.100 149.882 M155.200 191.824 C 155.200 192.167,155.347 192.356,155.527 192.245 C 155.707 192.134,156.346 193.045,156.946 194.269 C 157.547 195.493,158.122 196.411,158.226 196.308 C 158.475 196.058,155.884 191.203,155.500 191.201 C 155.335 191.201,155.200 191.481,155.200 191.824 M242.713 194.500 C 242.895 199.517,243.085 199.869,243.146 195.300 C 243.175 193.045,243.064 191.200,242.897 191.200 C 242.730 191.200,242.648 192.685,242.713 194.500 M241.440 193.240 C 241.086 193.949,240.874 194.607,240.969 194.702 C 241.064 194.797,241.438 194.301,241.800 193.600 C 242.162 192.899,242.374 192.241,242.271 192.138 C 242.168 192.035,241.794 192.531,241.440 193.240 M240.290 195.473 C 240.186 195.653,239.150 197.600,237.989 199.800 C 236.828 202.000,235.699 204.029,235.482 204.310 C 235.264 204.590,235.180 204.913,235.295 205.028 C 235.410 205.143,236.694 203.037,238.147 200.347 C 239.601 197.658,240.721 195.387,240.635 195.302 C 240.550 195.217,240.395 195.294,240.290 195.473 M159.204 198.400 C 160.966 201.955,162.896 205.237,163.103 205.030 C 163.219 204.914,163.134 204.590,162.913 204.310 C 162.692 204.029,161.743 202.360,160.804 200.600 C 158.944 197.116,157.762 195.491,159.204 198.400 M234.377 206.466 C 233.854 207.467,232.094 210.703,230.526 213.548 C 229.996 214.509,229.639 215.373,229.733 215.467 C 229.827 215.561,231.094 213.437,232.547 210.747 C 234.001 208.058,235.117 205.784,235.028 205.694 C 234.938 205.605,234.645 205.952,234.377 206.466 M228.756 216.900 C 227.086 220.086,225.426 223.074,225.085 223.510 C 224.865 223.790,224.781 224.114,224.897 224.230 C 225.013 224.346,225.737 223.307,226.506 221.921 C 228.509 218.309,229.646 216.000,229.422 216.000 C 229.315 216.000,229.016 216.405,228.756 216.900 M220.400 232.113 C 219.191 233.095,218.477 234.205,219.441 233.605 C 219.903 233.317,220.490 232.748,220.744 232.341 C 221.281 231.482,221.224 231.444,220.400 232.113 M154.893 310.800 C 154.893 311.570,154.975 311.885,155.076 311.500 C 155.176 311.115,155.176 310.485,155.076 310.100 C 154.975 309.715,154.893 310.030,154.893 310.800 " stroke="none" fill="#0494ac" fill-rule="evenodd"></path><path id="path8" d="M89.455 80.200 C 89.314 80.568,115.970 80.615,141.800 80.293 C 146.420 80.235,136.567 80.101,119.904 79.994 C 99.897 79.866,89.557 79.936,89.455 80.200 M264.500 80.300 C 272.805 80.360,286.395 80.360,294.700 80.300 C 303.005 80.239,296.210 80.190,279.600 80.190 C 262.990 80.190,256.195 80.239,264.500 80.300 M152.400 81.190 C 154.973 82.111,155.381 82.173,154.000 81.431 C 153.450 81.136,152.370 80.784,151.600 80.649 C 150.626 80.477,150.870 80.642,152.400 81.190 M247.200 80.688 C 246.650 80.787,246.020 81.045,245.800 81.262 C 245.384 81.673,247.046 81.378,248.600 80.766 C 249.455 80.429,248.836 80.395,247.200 80.688 M310.400 80.782 C 310.730 81.005,311.317 81.191,311.705 81.194 C 312.569 81.201,313.813 81.877,315.399 83.200 L 316.597 84.200 315.605 83.074 C 314.550 81.878,312.963 81.034,311.000 80.625 C 310.117 80.442,309.959 80.483,310.400 80.782 M83.660 82.380 C 83.832 82.896,84.381 82.988,84.430 82.510 C 84.447 82.351,84.244 82.148,83.980 82.060 C 83.716 81.972,83.572 82.116,83.660 82.380 M158.018 84.600 C 159.005 85.700,160.414 87.545,161.148 88.700 C 161.882 89.855,162.565 90.800,162.665 90.800 C 163.218 90.800,159.387 85.498,157.752 84.000 C 156.362 82.727,156.386 82.781,158.018 84.600 M239.312 86.395 C 238.603 87.040,238.163 87.653,238.332 87.758 C 238.502 87.863,239.134 87.330,239.737 86.574 C 241.070 84.904,240.989 84.870,239.312 86.395 M318.197 199.600 C 318.197 260.650,318.243 285.625,318.300 255.100 C 318.357 224.575,318.357 174.625,318.300 144.100 C 318.243 113.575,318.197 138.550,318.197 199.600 M162.845 91.404 C 163.241 92.438,165.346 95.987,165.483 95.850 C 165.567 95.766,165.069 94.730,164.376 93.548 C 163.142 91.446,162.536 90.597,162.845 91.404 M166.800 98.493 C 166.800 98.643,167.340 99.681,168.000 100.800 C 168.660 101.919,169.204 102.962,169.209 103.118 C 169.214 103.273,169.584 103.850,170.032 104.400 C 170.480 104.950,170.178 104.140,169.360 102.600 C 167.776 99.616,166.800 98.050,166.800 98.493 M170.806 105.650 C 170.797 106.005,172.833 109.600,173.042 109.600 C 173.138 109.600,172.860 108.925,172.424 108.100 C 171.478 106.311,170.815 105.306,170.806 105.650 M173.215 110.200 C 173.217 110.420,173.586 111.050,174.036 111.600 C 174.579 112.264,174.715 112.331,174.440 111.800 C 173.766 110.495,173.212 109.772,173.215 110.200 M177.245 117.404 C 177.641 118.438,179.746 121.987,179.883 121.850 C 179.967 121.766,179.469 120.730,178.776 119.548 C 177.542 117.446,176.936 116.597,177.245 117.404 M181.200 124.493 C 181.200 124.643,181.740 125.681,182.400 126.800 C 183.060 127.919,183.604 128.962,183.609 129.118 C 183.614 129.273,183.984 129.850,184.432 130.400 C 184.880 130.950,184.578 130.140,183.760 128.600 C 182.176 125.616,181.200 124.050,181.200 124.493 M185.200 131.693 C 185.200 131.843,185.740 132.881,186.400 134.000 C 187.060 135.119,187.604 136.162,187.609 136.318 C 187.614 136.473,187.984 137.050,188.432 137.600 C 188.880 138.150,188.578 137.340,187.760 135.800 C 186.176 132.816,185.200 131.250,185.200 131.693 M189.206 138.850 C 189.197 139.205,191.233 142.800,191.442 142.800 C 191.538 142.800,191.260 142.125,190.824 141.300 C 189.878 139.511,189.215 138.506,189.206 138.850 M207.899 143.632 C 207.295 144.714,206.883 145.600,206.983 145.600 C 207.257 145.600,209.321 141.988,209.147 141.814 C 209.065 141.732,208.503 142.550,207.899 143.632 M191.615 143.400 C 191.617 143.620,191.986 144.250,192.436 144.800 C 192.979 145.464,193.115 145.531,192.840 145.000 C 192.166 143.695,191.612 142.972,191.615 143.400 M205.605 147.300 C 204.599 148.683,203.888 149.241,202.600 149.660 C 201.839 149.908,201.842 149.922,202.669 149.960 C 203.539 150.000,205.650 148.201,206.419 146.764 C 207.043 145.598,206.659 145.851,205.605 147.300 M194.800 148.338 C 194.800 148.943,196.793 150.064,197.524 149.871 C 198.048 149.733,198.015 149.682,197.375 149.646 C 196.922 149.621,196.157 149.233,195.675 148.784 C 195.194 148.336,194.800 148.135,194.800 148.338 M199.100 150.282 C 199.595 150.378,200.405 150.378,200.900 150.282 C 201.395 150.187,200.990 150.109,200.000 150.109 C 199.010 150.109,198.605 150.187,199.100 150.282 M154.998 191.300 C 154.879 191.795,154.831 218.390,154.892 250.400 L 155.003 308.600 155.101 249.900 C 155.156 217.615,155.352 191.200,155.537 191.200 C 155.723 191.200,156.291 192.011,156.801 193.002 C 157.311 193.994,157.794 194.740,157.874 194.660 C 158.094 194.439,155.856 190.400,155.514 190.400 C 155.350 190.400,155.118 190.805,154.998 191.300 M241.888 191.657 C 241.496 192.345,241.240 192.974,241.320 193.054 C 241.400 193.133,241.706 192.749,242.000 192.199 C 242.934 190.455,243.198 191.093,243.282 195.300 L 243.365 199.400 243.500 195.800 C 243.701 190.447,243.244 189.273,241.888 191.657 M238.220 198.504 C 237.383 200.097,236.878 201.220,237.096 201.000 C 237.665 200.426,240.058 195.924,239.885 195.752 C 239.806 195.673,239.057 196.911,238.220 198.504 M161.440 201.602 C 162.039 202.703,162.593 203.540,162.671 203.463 C 162.843 203.290,160.808 199.600,160.541 199.600 C 160.436 199.600,160.840 200.501,161.440 201.602 M163.478 205.395 C 163.844 206.162,164.214 206.719,164.301 206.632 C 164.484 206.449,163.270 204.000,162.996 204.000 C 162.895 204.000,163.112 204.628,163.478 205.395 M234.758 204.900 C 234.254 205.867,232.487 209.116,230.926 211.948 C 230.396 212.909,230.029 213.762,230.110 213.843 C 230.191 213.924,230.617 213.317,231.058 212.495 C 231.499 211.673,232.712 209.425,233.754 207.500 C 234.797 205.575,235.555 204.000,235.439 204.000 C 235.323 204.000,235.017 204.405,234.758 204.900 M226.758 219.700 C 226.500 220.195,225.794 221.500,225.189 222.600 C 222.927 226.714,222.308 228.041,222.541 228.275 C 222.673 228.407,222.889 228.174,223.020 227.757 C 223.301 226.863,223.327 226.812,225.761 222.300 C 226.800 220.375,227.555 218.800,227.439 218.800 C 227.323 218.800,227.017 219.205,226.758 219.700 M219.822 231.575 L 218.244 233.400 220.003 231.714 C 220.970 230.786,221.680 229.965,221.580 229.888 C 221.481 229.812,220.690 230.571,219.822 231.575 M154.060 313.466 C 153.419 314.161,153.599 314.495,154.360 314.025 C 154.656 313.842,154.831 313.509,154.749 313.286 C 154.663 313.050,154.372 313.126,154.060 313.466 M315.652 316.416 C 315.170 317.067,314.511 317.600,314.188 317.600 C 313.865 317.600,313.600 317.780,313.600 318.000 C 313.600 318.607,313.789 318.513,315.568 317.027 C 316.472 316.272,317.057 315.559,316.869 315.443 C 316.681 315.327,316.133 315.764,315.652 316.416 M311.684 319.015 C 311.260 319.496,311.270 319.600,311.741 319.600 C 312.057 319.600,312.418 319.330,312.545 319.000 C 312.836 318.241,312.360 318.249,311.684 319.015 " stroke="none" fill="#045678" fill-rule="evenodd"></path></g></svg>