<svg id="svg" version="1.1" xmlns="http://www.w3.org/2000/svg" xmlns:xlink="http://www.w3.org/1999/xlink" width="400" height="400" viewBox="0, 0, 400,400"><g id="svgg"><path id="path0" d="M78.200 88.000 C 78.064 88.220,77.423 88.400,76.776 88.400 C 76.129 88.400,75.600 88.580,75.600 88.800 C 75.600 89.020,75.336 89.200,75.013 89.200 C 74.160 89.200,71.600 91.673,71.600 92.497 C 71.600 92.884,71.420 93.200,71.200 93.200 C 70.980 93.200,70.800 94.010,70.800 95.000 C 70.800 95.990,70.620 96.800,70.400 96.800 C 70.134 96.800,70.000 134.133,70.000 208.000 C 70.000 281.867,70.134 319.200,70.400 319.200 C 70.620 319.200,70.800 320.010,70.800 321.000 C 70.800 321.990,70.980 322.800,71.200 322.800 C 71.420 322.800,71.600 323.076,71.600 323.413 C 71.600 324.209,74.191 326.800,74.987 326.800 C 75.324 326.800,75.600 326.980,75.600 327.200 C 75.600 327.420,76.320 327.600,77.200 327.600 C 78.080 327.600,78.800 327.780,78.800 328.000 C 78.800 328.263,88.675 328.400,107.624 328.400 C 126.737 328.400,136.364 328.265,136.200 328.000 C 136.050 327.757,136.633 327.600,137.688 327.600 C 138.965 327.600,139.576 327.388,140.000 326.800 C 140.317 326.360,140.820 326.000,141.117 326.000 C 141.849 326.000,142.800 325.000,142.800 324.229 C 142.800 323.883,142.980 323.600,143.200 323.600 C 143.420 323.600,143.600 323.240,143.600 322.800 C 143.600 322.360,143.780 322.000,144.000 322.000 C 144.220 322.000,144.400 321.550,144.400 321.000 L 144.400 320.000 116.273 320.000 C 84.390 320.000,85.161 320.067,82.149 317.054 C 79.167 314.073,79.414 324.210,79.299 199.900 C 79.234 130.663,79.051 87.600,78.821 87.600 C 78.615 87.600,78.336 87.780,78.200 88.000 M233.299 89.221 C 231.646 90.192,227.976 93.873,227.232 95.306 C 226.920 95.908,226.515 96.400,226.332 96.400 C 226.150 96.400,226.000 96.760,226.000 97.200 C 226.000 97.640,225.820 98.000,225.600 98.000 C 225.380 98.000,225.200 98.360,225.200 98.800 C 225.200 99.240,225.020 99.600,224.800 99.600 C 224.580 99.600,224.400 99.878,224.400 100.217 C 224.400 100.556,224.040 101.220,223.600 101.692 C 223.160 102.164,222.800 102.787,222.800 103.075 C 222.800 103.364,222.620 103.600,222.400 103.600 C 222.180 103.600,222.000 103.960,222.000 104.400 C 222.000 104.840,221.820 105.200,221.600 105.200 C 221.380 105.200,221.200 105.560,221.200 106.000 C 221.200 106.440,221.020 106.800,220.800 106.800 C 220.580 106.800,220.400 107.160,220.400 107.600 C 220.400 108.040,220.220 108.400,220.000 108.400 C 219.780 108.400,219.600 108.760,219.600 109.200 C 219.600 109.640,219.420 110.000,219.200 110.000 C 218.980 110.000,218.800 110.270,218.800 110.600 C 218.800 110.930,218.620 111.200,218.400 111.200 C 218.180 111.200,218.000 111.470,218.000 111.800 C 218.000 112.130,217.820 112.400,217.600 112.400 C 217.380 112.400,217.200 112.760,217.200 113.200 C 217.200 113.640,217.020 114.000,216.800 114.000 C 216.580 114.000,216.400 114.360,216.400 114.800 C 216.400 115.240,216.220 115.600,216.000 115.600 C 215.780 115.600,215.600 115.878,215.600 116.217 C 215.600 116.556,215.240 117.220,214.800 117.692 C 214.360 118.164,214.000 118.787,214.000 119.075 C 214.000 119.364,213.820 119.600,213.600 119.600 C 213.380 119.600,213.200 119.960,213.200 120.400 C 213.200 120.840,213.020 121.200,212.800 121.200 C 212.580 121.200,212.400 121.560,212.400 122.000 C 212.400 122.440,212.220 122.800,212.000 122.800 C 211.780 122.800,211.600 123.160,211.600 123.600 C 211.600 124.040,211.420 124.400,211.200 124.400 C 210.980 124.400,210.800 124.678,210.800 125.017 C 210.800 125.356,210.440 126.020,210.000 126.492 C 209.560 126.964,209.200 127.587,209.200 127.875 C 209.200 128.164,209.020 128.400,208.800 128.400 C 208.580 128.400,208.400 128.760,208.400 129.200 C 208.400 129.640,208.220 130.000,208.000 130.000 C 207.780 130.000,207.600 130.360,207.600 130.800 C 207.600 131.240,207.420 131.600,207.200 131.600 C 206.980 131.600,206.800 131.960,206.800 132.400 C 206.800 132.840,206.620 133.200,206.400 133.200 C 206.180 133.200,206.000 133.478,206.000 133.817 C 206.000 134.156,205.640 134.820,205.200 135.292 C 204.760 135.764,204.400 136.387,204.400 136.675 C 204.400 136.964,204.264 137.200,204.097 137.200 C 203.931 137.200,203.558 137.958,203.269 138.885 C 202.687 140.748,203.229 141.607,204.976 141.594 C 206.321 141.584,206.567 141.262,210.001 135.000 C 211.810 131.700,213.836 128.010,214.501 126.800 C 215.167 125.590,216.251 123.610,216.911 122.400 C 218.704 119.114,220.099 116.571,222.152 112.851 C 223.168 111.010,224.000 109.444,224.000 109.373 C 224.000 109.301,224.603 108.198,225.340 106.921 C 226.076 105.645,227.402 103.250,228.286 101.600 C 229.170 99.950,230.937 96.716,232.211 94.414 C 234.027 91.134,235.240 88.176,234.665 88.428 C 234.629 88.444,234.014 88.801,233.299 89.221 M239.492 201.700 C 239.131 202.415,237.748 204.980,236.418 207.400 C 235.088 209.820,233.505 212.790,232.900 214.000 L 231.800 216.200 231.695 267.375 C 231.626 301.478,231.726 318.686,231.995 318.955 C 232.218 319.178,232.400 320.134,232.400 321.080 C 232.400 322.026,232.580 322.800,232.800 322.800 C 233.020 322.800,233.200 323.035,233.200 323.322 C 233.200 324.201,235.856 326.800,236.754 326.800 C 237.219 326.800,237.600 326.980,237.600 327.200 C 237.600 327.420,238.230 327.600,239.000 327.600 C 239.770 327.600,240.400 327.780,240.400 328.000 C 240.400 328.263,250.541 328.400,270.024 328.400 C 289.671 328.400,299.564 328.265,299.400 328.000 C 299.249 327.756,299.863 327.600,300.976 327.600 C 301.979 327.600,302.800 327.420,302.800 327.200 C 302.800 326.980,303.078 326.800,303.418 326.800 C 304.174 326.800,306.000 325.037,306.000 324.306 C 306.000 324.015,306.360 323.517,306.800 323.200 C 307.320 322.825,307.600 322.165,307.600 321.312 L 307.600 320.000 278.977 320.000 C 245.450 320.000,245.402 319.994,242.748 315.726 C 240.791 312.577,240.836 313.999,240.818 255.500 C 240.808 225.195,240.653 200.400,240.474 200.400 C 240.295 200.400,239.853 200.985,239.492 201.700 M162.000 220.776 C 162.000 228.792,162.142 233.200,162.400 233.200 C 162.620 233.200,162.800 233.560,162.800 234.000 C 162.800 234.440,162.980 234.800,163.200 234.800 C 163.420 234.800,163.600 235.120,163.600 235.512 C 163.600 235.903,163.960 236.483,164.400 236.800 C 164.840 237.117,165.200 237.610,165.200 237.896 C 165.200 238.624,170.253 243.600,170.993 243.600 C 171.327 243.600,171.600 243.780,171.600 244.000 C 171.600 244.220,172.140 244.400,172.800 244.400 C 173.460 244.400,174.000 244.580,174.000 244.800 C 174.000 245.020,174.810 245.200,175.800 245.200 C 176.790 245.200,177.600 245.380,177.600 245.600 C 177.600 245.857,181.533 246.000,188.600 246.000 C 195.667 246.000,199.600 245.857,199.600 245.600 C 199.600 245.380,200.320 245.200,201.200 245.200 C 202.080 245.200,202.800 245.020,202.800 244.800 C 202.800 244.580,203.300 244.400,203.912 244.400 C 204.565 244.400,205.261 244.070,205.600 243.600 C 205.917 243.160,206.411 242.800,206.697 242.800 C 207.406 242.800,211.600 238.559,211.600 237.842 C 211.600 237.526,211.825 237.186,212.100 237.088 C 213.639 236.538,211.700 236.474,209.233 236.993 C 201.973 238.520,184.317 237.628,180.396 235.536 C 177.855 234.180,172.800 228.831,172.800 227.498 C 172.800 227.388,171.968 225.790,170.952 223.949 C 167.954 218.515,167.025 216.811,164.823 212.703 C 163.674 210.560,162.569 208.705,162.367 208.580 C 162.147 208.444,162.000 213.333,162.000 220.776 " stroke="none" fill="#eb07f1" fill-rule="evenodd"></path><path id="path1" d="M96.198 72.349 C 96.054 72.725,95.612 72.822,94.794 72.659 C 94.101 72.520,93.600 72.589,93.600 72.823 C 93.600 73.044,93.266 73.355,92.857 73.513 C 91.442 74.060,89.202 76.340,89.449 76.983 C 89.602 77.381,89.458 77.600,89.043 77.600 C 88.357 77.600,88.212 78.284,88.725 79.093 C 88.968 79.474,95.847 79.609,119.219 79.693 L 149.400 79.800 151.400 80.767 C 155.361 82.682,158.371 85.799,161.087 90.800 C 161.744 92.010,162.638 93.630,163.073 94.400 C 163.508 95.170,164.647 97.240,165.603 99.000 C 166.560 100.760,167.850 103.063,168.471 104.118 C 169.092 105.172,169.600 106.103,169.600 106.186 C 169.600 106.269,170.500 107.895,171.600 109.800 C 172.700 111.705,173.600 113.331,173.600 113.414 C 173.600 113.497,174.108 114.428,174.729 115.482 C 175.350 116.537,176.640 118.840,177.597 120.600 C 178.553 122.360,179.665 124.385,180.068 125.100 C 180.471 125.815,181.129 126.985,181.532 127.700 C 181.935 128.415,183.040 130.440,183.988 132.200 C 184.936 133.960,185.841 135.580,185.998 135.800 C 186.155 136.020,186.963 137.460,187.793 139.000 C 193.214 149.054,193.732 149.600,197.842 149.600 C 201.286 149.600,202.651 148.595,205.079 144.276 L 206.359 142.000 205.340 142.000 C 203.721 142.000,201.877 140.911,200.874 139.362 C 199.140 136.685,198.384 135.149,198.616 134.774 C 198.743 134.568,198.546 134.400,198.177 134.400 C 197.704 134.400,197.568 134.165,197.716 133.600 C 197.836 133.141,197.728 132.799,197.463 132.797 C 197.208 132.795,196.802 132.390,196.560 131.897 C 195.460 129.657,194.173 127.380,193.886 127.168 C 193.714 127.040,193.688 126.635,193.829 126.268 C 193.998 125.828,193.882 125.600,193.489 125.600 C 193.162 125.600,192.793 125.285,192.670 124.900 C 192.548 124.515,191.837 123.117,191.092 121.794 C 190.347 120.471,189.811 119.166,189.902 118.894 C 189.993 118.622,189.761 118.400,189.387 118.400 C 188.908 118.400,188.767 118.168,188.912 117.614 C 189.025 117.181,188.952 116.866,188.748 116.914 C 188.256 117.029,185.691 112.326,185.902 111.694 C 185.993 111.422,185.761 111.200,185.387 111.200 C 184.904 111.200,184.767 110.968,184.916 110.400 C 185.045 109.905,184.928 109.600,184.609 109.600 C 184.325 109.600,183.990 109.285,183.864 108.900 C 183.737 108.515,183.202 107.480,182.674 106.600 C 182.146 105.720,181.798 104.775,181.900 104.500 C 182.002 104.225,181.796 104.000,181.443 104.000 C 181.067 104.000,180.800 103.668,180.800 103.200 C 180.800 102.760,180.641 102.400,180.447 102.400 C 180.252 102.400,179.990 102.085,179.864 101.700 C 179.738 101.315,179.174 100.224,178.609 99.275 C 178.045 98.326,177.688 97.381,177.816 97.175 C 177.943 96.969,177.767 96.800,177.424 96.800 C 177.067 96.800,176.800 96.458,176.800 96.000 C 176.800 95.560,176.641 95.200,176.447 95.200 C 176.252 95.200,175.990 94.885,175.864 94.500 C 175.737 94.115,175.202 93.080,174.674 92.200 C 174.146 91.320,173.798 90.375,173.900 90.100 C 174.002 89.825,173.796 89.600,173.443 89.600 C 173.067 89.600,172.800 89.268,172.800 88.800 C 172.800 88.360,172.641 88.000,172.447 88.000 C 172.252 88.000,171.990 87.685,171.864 87.300 C 171.737 86.915,171.202 85.880,170.674 85.000 C 170.146 84.120,169.798 83.175,169.900 82.900 C 170.002 82.625,169.796 82.400,169.443 82.400 C 169.067 82.400,168.800 82.068,168.800 81.600 C 168.800 81.160,168.620 80.800,168.400 80.800 C 168.180 80.800,168.000 80.505,168.000 80.145 C 168.000 79.168,162.235 73.600,161.223 73.600 C 160.757 73.600,160.272 73.331,160.146 73.003 C 159.986 72.586,159.609 72.483,158.896 72.662 C 158.238 72.827,157.720 72.720,157.438 72.359 C 156.789 71.531,96.516 71.521,96.198 72.349 M255.096 72.326 C 254.850 72.622,254.272 72.754,253.771 72.629 C 253.176 72.479,252.802 72.617,252.637 73.048 C 252.486 73.442,252.096 73.614,251.632 73.493 C 250.770 73.267,244.345 79.277,244.762 79.921 C 244.907 80.145,246.175 80.146,248.000 79.924 C 249.650 79.724,263.960 79.614,279.800 79.680 L 308.600 79.800 310.829 80.847 C 313.140 81.932,314.401 83.205,315.536 85.600 C 316.149 86.892,316.208 95.650,316.303 199.300 L 316.407 311.600 317.361 311.600 C 317.885 311.600,318.417 311.333,318.542 311.007 C 318.667 310.680,319.023 310.511,319.333 310.630 C 319.643 310.749,320.009 310.554,320.146 310.198 C 320.282 309.841,320.560 309.652,320.764 309.777 C 321.245 310.075,323.675 307.645,323.377 307.164 C 323.252 306.960,323.429 306.687,323.772 306.555 C 324.214 306.386,324.320 306.022,324.138 305.296 C 323.973 304.638,324.080 304.120,324.441 303.838 C 325.229 303.221,325.288 79.984,324.500 79.480 C 324.225 79.304,323.994 78.764,323.987 78.280 C 323.980 77.796,323.710 77.051,323.387 76.624 C 323.064 76.196,322.800 75.420,322.800 74.898 C 322.800 74.229,322.594 73.975,322.100 74.036 C 321.185 74.150,319.884 73.599,319.479 72.928 C 319.278 72.594,318.794 72.487,318.183 72.640 C 317.547 72.800,317.135 72.696,316.999 72.342 C 316.695 71.550,255.753 71.533,255.096 72.326 M153.129 250.714 C 153.089 283.101,153.044 310.003,153.029 310.495 C 152.993 311.593,154.356 311.980,154.891 311.024 C 155.116 310.622,155.541 310.454,155.982 310.594 C 156.438 310.739,156.798 310.582,156.956 310.170 C 157.105 309.783,157.458 309.613,157.824 309.754 C 158.177 309.889,158.337 309.822,158.197 309.595 C 158.063 309.378,158.303 309.200,158.732 309.200 C 159.306 309.200,159.580 308.831,159.774 307.800 C 159.924 306.996,160.273 306.400,160.593 306.400 C 161.005 306.400,161.091 306.039,160.924 305.007 C 160.765 304.029,160.862 303.551,161.249 303.403 C 161.713 303.224,161.793 295.607,161.756 255.043 L 161.712 206.894 159.305 202.347 C 155.244 194.678,154.318 193.022,153.748 192.414 C 153.284 191.918,153.189 200.810,153.129 250.714 M239.870 192.700 C 239.748 193.085,239.041 194.480,238.300 195.800 C 237.560 197.120,236.016 199.954,234.870 202.099 C 233.723 204.243,232.366 206.763,231.854 207.699 C 231.341 208.634,230.102 210.930,229.100 212.800 C 228.098 214.670,226.634 217.370,225.847 218.800 C 222.832 224.276,221.459 227.192,221.754 227.487 C 221.922 227.655,222.238 227.476,222.455 227.088 C 222.672 226.700,222.994 226.473,223.170 226.582 C 223.572 226.830,228.447 222.000,228.200 221.599 C 228.100 221.438,228.375 220.985,228.809 220.591 C 229.244 220.198,229.600 219.544,229.600 219.138 C 229.600 218.732,229.780 218.400,230.000 218.400 C 230.220 218.400,230.400 218.040,230.400 217.600 C 230.400 217.160,230.580 216.800,230.800 216.800 C 231.020 216.800,231.203 216.575,231.208 216.300 C 231.212 216.025,233.372 211.855,236.008 207.034 L 240.800 198.268 240.800 195.134 C 240.800 192.200,240.380 191.100,239.870 192.700 " stroke="none" fill="#05fbfb" fill-rule="evenodd"></path><path id="path2" d="M86.700 80.687 C 85.875 80.776,85.200 81.017,85.200 81.224 C 85.200 81.431,84.854 81.600,84.431 81.600 C 83.511 81.600,80.800 84.640,80.800 85.672 C 80.800 86.072,80.575 86.400,80.300 86.400 C 79.901 86.400,79.840 109.220,80.000 199.700 L 80.200 313.000 81.121 314.550 C 82.271 316.484,82.716 316.929,84.650 318.079 L 86.200 319.000 116.300 319.117 C 136.975 319.197,146.400 319.103,146.400 318.817 C 146.400 318.587,146.760 318.400,147.200 318.400 C 147.640 318.400,148.000 318.241,148.000 318.047 C 148.000 317.852,148.335 317.606,148.745 317.498 C 149.155 317.391,150.100 316.425,150.845 315.352 L 152.200 313.400 152.296 252.800 C 152.388 194.208,152.439 190.400,153.136 190.400 C 153.523 190.400,155.860 194.488,160.854 203.901 C 161.992 206.046,163.050 207.980,163.205 208.200 C 163.361 208.420,164.257 210.040,165.197 211.800 C 168.478 217.944,170.556 221.781,173.096 226.387 C 175.874 231.425,178.561 234.070,182.455 235.600 C 187.527 237.593,213.572 236.840,213.597 234.700 C 213.598 234.535,213.838 234.400,214.128 234.400 C 214.980 234.400,219.769 229.163,220.712 227.200 C 221.544 225.469,223.444 221.905,226.470 216.400 C 227.256 214.970,228.664 212.360,229.598 210.600 C 230.532 208.840,231.793 206.500,232.400 205.400 C 233.007 204.300,234.268 201.960,235.202 200.200 C 240.049 191.069,240.216 190.800,241.044 190.800 C 241.503 190.800,241.592 200.230,241.597 249.960 C 241.606 320.649,241.178 315.027,246.800 318.400 C 248.382 319.349,308.295 319.531,310.273 318.592 C 311.999 317.773,314.400 315.679,314.400 314.992 C 314.400 314.703,314.625 314.392,314.900 314.300 C 315.298 314.167,315.421 291.039,315.504 200.812 L 315.608 87.490 314.655 85.409 C 313.577 83.054,312.108 81.837,309.320 80.991 C 306.274 80.067,248.488 80.122,245.262 81.052 C 240.602 82.395,238.140 84.877,234.201 92.200 C 233.372 93.740,232.153 95.990,231.492 97.200 C 230.830 98.410,229.774 100.345,229.144 101.500 C 228.515 102.655,227.460 104.590,226.800 105.800 C 226.140 107.010,225.085 108.945,224.456 110.100 C 223.826 111.255,222.721 113.280,222.000 114.600 C 221.279 115.920,220.174 117.945,219.544 119.100 C 218.915 120.255,217.835 122.235,217.144 123.500 C 216.454 124.765,215.374 126.745,214.744 127.900 C 214.115 129.055,213.084 130.945,212.453 132.100 C 211.822 133.255,210.624 135.460,209.791 137.000 C 208.958 138.540,207.982 140.250,207.621 140.800 C 207.260 141.350,206.556 142.622,206.057 143.626 C 203.462 148.850,200.973 150.662,196.934 150.267 C 193.506 149.932,192.388 148.770,188.392 141.400 C 187.438 139.640,186.150 137.337,185.529 136.282 C 184.908 135.228,184.400 134.312,184.400 134.247 C 184.400 134.182,182.960 131.551,181.200 128.400 C 179.440 125.249,178.000 122.624,178.000 122.567 C 178.000 122.510,177.100 120.905,176.000 119.000 C 174.900 117.095,174.000 115.469,174.000 115.386 C 174.000 115.303,173.493 114.372,172.873 113.318 C 172.253 112.263,171.057 110.140,170.214 108.600 C 169.371 107.060,167.786 104.180,166.692 102.200 C 165.597 100.220,164.160 97.610,163.499 96.400 C 158.154 86.621,155.690 83.548,151.694 81.675 L 149.400 80.600 118.800 80.562 C 101.970 80.542,87.525 80.598,86.700 80.687 " stroke="none" fill="#fbfbfc" fill-rule="evenodd"></path><path id="path3" d="M103.900 79.900 C 111.655 79.961,124.345 79.961,132.100 79.900 C 139.855 79.839,133.510 79.789,118.000 79.789 C 102.490 79.789,96.145 79.839,103.900 79.900 M263.329 79.900 C 271.211 79.961,283.991 79.961,291.729 79.900 C 299.468 79.839,293.020 79.789,277.400 79.790 C 261.780 79.790,255.448 79.839,263.329 79.900 M156.200 84.400 C 157.059 85.280,157.852 86.000,157.962 86.000 C 158.072 86.000,157.459 85.280,156.600 84.400 C 155.741 83.520,154.948 82.800,154.838 82.800 C 154.728 82.800,155.341 83.520,156.200 84.400 M204.500 141.876 C 204.885 141.976,205.515 141.976,205.900 141.876 C 206.285 141.775,205.970 141.693,205.200 141.693 C 204.430 141.693,204.115 141.775,204.500 141.876 M152.899 250.700 L 152.997 309.800 153.100 250.852 C 153.198 194.820,153.237 191.931,153.901 192.452 C 154.534 192.948,154.548 192.934,154.051 192.300 C 153.749 191.915,153.344 191.600,153.151 191.600 C 152.951 191.600,152.842 216.989,152.899 250.700 M235.000 208.800 C 234.659 209.460,234.469 210.000,234.579 210.000 C 234.689 210.000,235.059 209.460,235.400 208.800 C 235.741 208.140,235.931 207.600,235.821 207.600 C 235.711 207.600,235.341 208.140,235.000 208.800 M232.600 213.200 C 232.259 213.860,232.069 214.400,232.179 214.400 C 232.289 214.400,232.659 213.860,233.000 213.200 C 233.341 212.540,233.531 212.000,233.421 212.000 C 233.311 212.000,232.941 212.540,232.600 213.200 M316.101 310.200 C 316.105 311.080,316.187 311.393,316.283 310.895 C 316.379 310.398,316.375 309.678,316.275 309.295 C 316.175 308.913,316.096 309.320,316.101 310.200 " stroke="none" fill="#90daee" fill-rule="evenodd"></path><path id="path4" d="M79.240 199.500 C 79.262 260.825,79.397 311.416,79.540 311.924 C 79.683 312.432,79.800 262.257,79.800 200.424 C 79.800 138.591,79.665 88.000,79.500 88.000 C 79.335 88.000,79.218 138.175,79.240 199.500 M232.901 93.108 C 231.746 95.249,230.159 98.170,229.373 99.600 C 226.489 104.851,225.063 107.467,223.489 110.400 C 222.604 112.050,221.276 114.445,220.540 115.721 C 219.226 117.997,218.850 118.935,219.554 118.180 C 219.749 117.971,222.113 113.757,224.809 108.815 C 227.504 103.873,230.014 99.283,230.387 98.615 C 230.759 97.947,231.840 95.960,232.788 94.200 C 233.736 92.440,234.684 90.781,234.894 90.513 C 235.104 90.246,235.214 89.844,235.138 89.622 C 235.062 89.399,234.055 90.968,232.901 93.108 M217.840 120.640 C 217.262 121.675,216.860 122.594,216.948 122.682 C 217.036 122.770,217.582 121.995,218.160 120.960 C 218.738 119.925,219.140 119.006,219.052 118.918 C 218.964 118.830,218.418 119.605,217.840 120.640 M215.440 125.040 C 214.862 126.075,214.460 126.994,214.548 127.082 C 214.636 127.170,215.182 126.395,215.760 125.360 C 216.338 124.325,216.740 123.406,216.652 123.318 C 216.564 123.230,216.018 124.005,215.440 125.040 M213.567 128.466 C 210.328 134.550,206.617 141.060,206.255 141.294 C 205.959 141.485,206.028 141.590,206.453 141.594 C 206.813 141.597,207.207 141.285,207.330 140.900 C 207.452 140.515,208.210 139.030,209.013 137.600 C 209.816 136.170,211.202 133.650,212.093 132.000 C 212.983 130.350,213.892 128.771,214.113 128.490 C 214.334 128.210,214.413 127.880,214.289 127.756 C 214.166 127.633,213.841 127.952,213.567 128.466 M240.000 200.000 C 240.000 200.220,240.180 200.400,240.400 200.400 C 240.665 200.400,240.810 219.119,240.828 255.700 C 240.845 289.652,241.003 311.309,241.235 311.800 C 241.508 312.375,241.556 312.049,241.407 310.644 C 241.293 309.568,241.200 284.143,241.200 254.144 C 241.200 205.927,241.130 199.600,240.600 199.600 C 240.270 199.600,240.000 199.780,240.000 200.000 M161.691 219.100 L 161.781 231.000 161.991 219.638 C 162.144 211.325,162.317 208.427,162.636 208.838 C 162.876 209.147,163.938 211.020,164.995 213.000 C 166.053 214.980,167.364 217.410,167.909 218.400 C 168.454 219.390,169.709 221.694,170.697 223.520 C 171.685 225.346,172.588 226.745,172.704 226.629 C 172.819 226.514,172.736 226.190,172.518 225.910 C 172.301 225.629,171.181 223.626,170.031 221.459 C 168.881 219.291,167.624 216.951,167.238 216.259 C 166.852 215.566,165.756 213.560,164.802 211.800 C 162.557 207.658,162.268 207.200,161.904 207.200 C 161.737 207.200,161.641 212.555,161.691 219.100 M172.800 227.449 C 172.800 228.106,176.492 232.750,177.929 233.900 C 180.381 235.863,180.348 235.459,177.871 233.195 C 176.664 232.092,175.101 230.292,174.397 229.195 C 173.182 227.302,172.800 226.884,172.800 227.449 M180.600 235.493 C 181.116 236.023,183.989 236.945,184.264 236.669 C 184.380 236.553,183.873 236.285,183.138 236.073 C 182.402 235.860,181.440 235.551,181.000 235.385 C 180.456 235.179,180.328 235.214,180.600 235.493 M210.000 236.400 C 209.213 236.909,210.616 236.909,211.800 236.400 C 212.533 236.085,212.516 236.054,211.600 236.034 C 211.050 236.022,210.330 236.187,210.000 236.400 M185.823 237.253 C 186.470 237.392,191.500 237.505,197.000 237.505 C 202.500 237.505,207.530 237.392,208.177 237.253 C 208.825 237.114,203.795 237.000,197.000 237.000 C 190.205 237.000,185.175 237.114,185.823 237.253 M80.016 313.526 C 79.962 315.301,84.562 319.971,85.470 319.064 C 85.577 318.956,85.037 318.570,84.269 318.206 C 82.582 317.405,81.841 316.624,80.813 314.565 C 80.383 313.704,80.025 313.237,80.016 313.526 M241.618 313.528 C 241.590 314.340,243.921 317.532,244.915 318.044 C 245.548 318.370,245.421 318.122,244.470 317.174 C 243.739 316.444,242.802 315.206,242.388 314.424 C 241.974 313.641,241.627 313.238,241.618 313.528 M86.875 319.660 C 87.940 319.960,144.634 320.101,144.337 319.803 C 144.229 319.695,131.047 319.560,115.045 319.503 C 99.042 319.447,86.366 319.517,86.875 319.660 M248.874 319.660 C 249.383 319.803,262.850 319.901,278.800 319.877 C 294.750 319.853,306.180 319.783,304.200 319.721 C 296.236 319.471,248.011 319.418,248.874 319.660 " stroke="none" fill="#fc8dfc" fill-rule="evenodd"></path><path id="path5" d="M98.230 71.151 C 97.771 71.895,101.311 72.000,126.800 72.000 C 141.265 72.000,153.660 71.888,154.344 71.751 C 158.134 70.993,152.540 70.800,126.800 70.800 C 110.950 70.800,98.351 70.955,98.230 71.151 M257.432 71.149 C 256.982 71.877,260.940 71.991,286.600 71.990 C 312.150 71.989,314.800 71.910,314.800 71.153 C 314.800 70.691,257.717 70.687,257.432 71.149 M93.800 72.000 C 93.664 72.220,93.197 72.400,92.763 72.400 C 91.946 72.400,89.200 74.856,89.200 75.587 C 89.200 76.306,89.814 76.038,91.000 74.800 C 91.632 74.140,92.377 73.600,92.655 73.600 C 92.933 73.600,93.304 73.360,93.480 73.067 C 93.656 72.774,94.322 72.549,94.961 72.567 C 95.599 72.585,96.199 72.375,96.294 72.100 C 96.504 71.491,94.172 71.398,93.800 72.000 M157.300 72.100 C 157.392 72.375,157.887 72.600,158.400 72.600 C 158.913 72.600,159.408 72.375,159.500 72.100 C 159.610 71.770,159.236 71.600,158.400 71.600 C 157.564 71.600,157.190 71.770,157.300 72.100 M252.600 72.000 C 252.464 72.220,252.003 72.400,251.576 72.400 C 250.630 72.400,250.550 73.129,251.458 73.478 C 251.844 73.626,252.311 73.463,252.588 73.084 C 252.867 72.702,253.386 72.524,253.858 72.647 C 254.315 72.767,254.878 72.588,255.177 72.228 C 255.634 71.677,255.522 71.600,254.273 71.600 C 253.489 71.600,252.736 71.780,252.600 72.000 M316.903 72.100 C 316.997 72.375,317.558 72.600,318.149 72.600 C 318.741 72.600,319.355 72.780,319.513 73.000 C 320.055 73.756,321.552 74.401,321.807 73.989 C 322.121 73.481,321.047 72.400,320.229 72.400 C 319.883 72.400,319.600 72.220,319.600 72.000 C 319.600 71.780,318.955 71.600,318.167 71.600 C 317.196 71.600,316.788 71.761,316.903 72.100 M160.067 72.661 C 160.148 73.085,160.622 73.459,161.177 73.537 C 162.329 73.701,168.000 79.193,168.000 80.145 C 168.000 80.505,168.180 80.800,168.400 80.800 C 168.620 80.800,168.800 81.160,168.800 81.600 C 168.800 82.068,169.067 82.400,169.443 82.400 C 169.796 82.400,170.002 82.625,169.900 82.900 C 169.798 83.175,170.146 84.120,170.674 85.000 C 171.202 85.880,171.737 86.915,171.864 87.300 C 171.990 87.685,172.252 88.000,172.447 88.000 C 172.641 88.000,172.800 88.360,172.800 88.800 C 172.800 89.244,173.067 89.600,173.400 89.600 C 173.730 89.600,174.000 89.456,174.000 89.280 C 174.000 88.700,173.006 86.806,172.700 86.803 C 172.535 86.801,172.400 86.440,172.400 86.000 C 172.400 85.560,172.220 85.200,172.000 85.200 C 171.780 85.200,171.600 84.855,171.600 84.433 C 171.600 84.012,171.465 83.607,171.300 83.533 C 171.135 83.460,170.567 82.545,170.037 81.500 C 169.508 80.455,168.923 79.600,168.737 79.600 C 168.552 79.600,168.400 79.351,168.400 79.046 C 168.400 78.289,163.407 73.200,162.664 73.200 C 162.335 73.200,162.007 73.044,161.933 72.853 C 161.630 72.064,159.920 71.889,160.067 72.661 M246.900 75.866 C 244.610 78.291,243.995 79.200,244.645 79.200 C 245.022 79.200,250.400 73.900,250.400 73.528 C 250.400 72.642,249.166 73.466,246.900 75.866 M322.800 74.887 C 322.800 75.401,323.052 76.182,323.361 76.622 C 323.669 77.062,323.984 77.853,324.061 78.380 C 324.275 79.855,325.200 79.899,325.200 78.433 C 325.200 77.755,325.020 77.200,324.800 77.200 C 324.580 77.200,324.400 76.840,324.400 76.400 C 324.400 75.960,324.220 75.600,324.000 75.600 C 323.780 75.600,323.600 75.341,323.600 75.024 C 323.600 74.707,323.420 74.336,323.200 74.200 C 322.977 74.062,322.800 74.366,322.800 74.887 M88.400 76.967 C 88.400 77.315,88.685 77.600,89.033 77.600 C 89.740 77.600,89.617 76.739,88.875 76.492 C 88.614 76.405,88.400 76.618,88.400 76.967 M87.600 78.800 C 87.600 79.244,87.867 79.600,88.200 79.600 C 88.873 79.600,88.900 79.527,88.557 78.633 C 88.214 77.739,87.600 77.846,87.600 78.800 M85.200 80.000 C 85.200 80.220,85.560 80.400,86.000 80.400 C 86.440 80.400,86.800 80.220,86.800 80.000 C 86.800 79.780,86.440 79.600,86.000 79.600 C 85.560 79.600,85.200 79.780,85.200 80.000 M243.600 80.000 C 243.600 80.220,243.870 80.400,244.200 80.400 C 244.530 80.400,244.800 80.220,244.800 80.000 C 244.800 79.780,244.530 79.600,244.200 79.600 C 243.870 79.600,243.600 79.780,243.600 80.000 M81.661 81.855 C 80.925 82.625,80.424 83.358,80.549 83.483 C 80.674 83.608,81.304 83.145,81.949 82.455 C 82.593 81.765,83.409 81.200,83.760 81.200 C 84.112 81.200,84.400 81.020,84.400 80.800 C 84.400 79.954,82.942 80.516,81.661 81.855 M242.000 80.800 C 242.000 81.020,242.270 81.200,242.600 81.200 C 242.930 81.200,243.200 81.020,243.200 80.800 C 243.200 80.580,242.930 80.400,242.600 80.400 C 242.270 80.400,242.000 80.580,242.000 80.800 M325.051 81.704 C 324.250 84.693,324.838 303.071,325.645 302.572 C 326.116 302.281,326.116 81.319,325.645 81.028 C 325.450 80.908,325.183 81.212,325.051 81.704 M238.602 83.415 C 237.334 84.633,236.401 85.734,236.529 85.862 C 236.656 85.990,237.658 85.173,238.754 84.047 C 239.851 82.921,240.940 82.000,241.174 82.000 C 241.408 82.000,241.600 81.820,241.600 81.600 C 241.600 80.798,240.860 81.246,238.602 83.415 M79.600 85.000 C 79.600 85.330,79.780 85.600,80.000 85.600 C 80.220 85.600,80.400 85.330,80.400 85.000 C 80.400 84.670,80.220 84.400,80.000 84.400 C 79.780 84.400,79.600 84.670,79.600 85.000 M235.300 87.398 C 235.025 87.711,234.800 88.164,234.800 88.407 C 234.800 88.649,234.592 88.719,234.338 88.562 C 234.052 88.385,233.985 88.452,234.162 88.738 C 234.563 89.387,234.641 89.347,235.600 88.000 C 236.459 86.793,236.233 86.339,235.300 87.398 M73.029 89.829 C 72.605 90.138,72.372 90.505,72.510 90.643 C 72.649 90.782,73.062 90.595,73.429 90.229 C 74.291 89.366,74.025 89.100,73.029 89.829 M173.895 90.239 C 173.763 90.370,174.101 91.225,174.645 92.139 C 175.190 93.052,175.738 94.115,175.864 94.500 C 175.990 94.885,176.252 95.200,176.447 95.200 C 176.641 95.200,176.800 95.560,176.800 96.000 C 176.800 96.458,177.067 96.800,177.424 96.800 C 177.767 96.800,177.943 96.969,177.816 97.175 C 177.688 97.381,178.045 98.326,178.609 99.275 C 179.174 100.224,179.738 101.315,179.864 101.700 C 179.990 102.085,180.252 102.400,180.447 102.400 C 180.641 102.400,180.800 102.760,180.800 103.200 C 180.800 103.644,181.067 104.000,181.400 104.000 C 182.254 104.000,182.142 102.703,181.200 101.692 C 180.760 101.220,180.400 100.556,180.400 100.217 C 180.400 99.878,180.220 99.600,180.000 99.600 C 179.780 99.600,179.600 99.255,179.600 98.833 C 179.600 98.412,179.465 98.007,179.300 97.933 C 179.135 97.860,178.567 96.945,178.037 95.900 C 177.508 94.855,176.923 94.000,176.737 94.000 C 176.552 94.000,176.400 93.640,176.400 93.200 C 176.400 92.760,176.220 92.400,176.000 92.400 C 175.780 92.400,175.600 92.117,175.600 91.771 C 175.600 90.791,174.411 89.723,173.895 90.239 M229.301 91.885 C 228.367 92.903,227.679 93.812,227.773 93.906 C 227.955 94.088,231.600 90.568,231.600 90.211 C 231.600 89.652,230.850 90.198,229.301 91.885 M226.493 95.600 C 226.218 96.040,226.131 96.400,226.300 96.400 C 226.469 96.400,226.832 96.040,227.107 95.600 C 227.382 95.160,227.469 94.800,227.300 94.800 C 227.131 94.800,226.768 95.160,226.493 95.600 M70.000 96.200 C 70.000 96.530,70.180 96.800,70.400 96.800 C 70.620 96.800,70.800 96.530,70.800 96.200 C 70.800 95.870,70.620 95.600,70.400 95.600 C 70.180 95.600,70.000 95.870,70.000 96.200 M181.895 104.639 C 181.763 104.770,182.101 105.625,182.645 106.539 C 183.190 107.452,183.738 108.515,183.864 108.900 C 184.144 109.755,185.200 109.834,185.200 109.000 C 185.200 108.670,185.020 108.400,184.800 108.400 C 184.580 108.400,184.400 108.040,184.400 107.600 C 184.400 107.160,184.220 106.800,184.000 106.800 C 183.780 106.800,183.600 106.517,183.600 106.171 C 183.600 105.191,182.411 104.123,181.895 104.639 M218.496 109.995 C 217.895 110.957,217.876 111.200,218.400 111.200 C 218.620 111.200,218.800 110.930,218.800 110.600 C 218.800 110.270,218.980 110.000,219.200 110.000 C 219.420 110.000,219.600 109.820,219.600 109.600 C 219.600 108.941,219.026 109.146,218.496 109.995 M184.800 110.600 C 184.800 110.930,185.070 111.200,185.400 111.200 C 185.730 111.200,186.000 110.930,186.000 110.600 C 186.000 110.270,185.730 110.000,185.400 110.000 C 185.070 110.000,184.800 110.270,184.800 110.600 M185.901 111.832 C 185.774 111.959,186.295 113.174,187.058 114.532 C 187.822 115.889,188.548 117.315,188.670 117.700 C 188.943 118.554,190.000 118.634,190.000 117.800 C 190.000 117.470,189.747 117.200,189.437 117.200 C 189.072 117.200,188.948 116.920,189.084 116.400 C 189.201 115.953,189.096 115.600,188.847 115.600 C 188.601 115.600,188.400 115.240,188.400 114.800 C 188.400 114.360,188.220 114.000,188.000 114.000 C 187.780 114.000,187.600 113.717,187.600 113.371 C 187.600 112.400,186.411 111.322,185.901 111.832 M189.901 119.032 C 189.774 119.159,190.295 120.374,191.058 121.732 C 191.822 123.089,192.548 124.515,192.670 124.900 C 192.943 125.754,194.000 125.834,194.000 125.000 C 194.000 124.670,193.820 124.400,193.600 124.400 C 193.380 124.400,193.200 124.040,193.200 123.600 C 193.200 123.160,193.020 122.800,192.800 122.800 C 192.580 122.800,192.400 122.440,192.400 122.000 C 192.400 121.560,192.264 121.200,192.098 121.200 C 191.931 121.200,191.556 120.660,191.264 120.000 C 190.746 118.829,190.371 118.562,189.901 119.032 M193.772 126.445 C 193.621 126.689,193.656 127.004,193.849 127.145 C 194.166 127.376,195.411 129.557,196.560 131.897 C 197.058 132.912,198.000 133.110,198.000 132.200 C 198.000 131.870,197.820 131.600,197.600 131.600 C 197.380 131.600,197.200 131.240,197.200 130.800 C 197.200 130.360,197.020 130.000,196.800 130.000 C 196.580 130.000,196.400 129.640,196.400 129.200 C 196.400 128.760,196.220 128.400,196.000 128.400 C 195.780 128.400,195.600 128.117,195.600 127.771 C 195.600 126.608,194.269 125.642,193.772 126.445 M197.600 133.800 C 197.600 134.130,197.881 134.400,198.224 134.400 C 198.567 134.400,198.743 134.568,198.616 134.774 C 198.275 135.325,201.356 140.608,202.216 140.946 C 202.445 141.037,202.820 140.511,203.049 139.777 C 203.279 139.044,203.362 138.463,203.233 138.486 C 202.278 138.655,200.400 137.159,200.400 136.229 C 200.400 135.883,200.264 135.600,200.098 135.600 C 199.931 135.600,199.556 135.060,199.264 134.400 C 198.712 133.153,197.600 132.752,197.600 133.800 M231.505 215.526 C 231.241 216.227,230.884 216.800,230.712 216.800 C 230.541 216.800,230.400 217.160,230.400 217.600 C 230.400 218.040,230.220 218.400,230.000 218.400 C 229.780 218.400,229.600 218.732,229.600 219.138 C 229.600 219.544,229.236 220.206,228.791 220.609 C 228.249 221.098,228.114 221.474,228.382 221.742 C 228.651 222.011,229.103 221.772,229.748 221.021 C 230.278 220.404,230.912 220.022,231.156 220.173 C 231.452 220.356,231.600 219.927,231.600 218.883 C 231.600 218.023,231.801 216.743,232.046 216.039 C 232.633 214.356,232.128 213.877,231.505 215.526 M225.885 224.314 C 224.848 225.366,224.000 226.356,224.000 226.514 C 224.000 227.215,224.957 226.664,226.611 225.011 C 228.288 223.333,228.815 222.400,228.085 222.400 C 227.912 222.400,226.922 223.261,225.885 224.314 M222.656 226.678 C 222.205 227.128,222.381 227.600,223.000 227.600 C 223.330 227.600,223.600 227.431,223.600 227.224 C 223.600 226.719,222.975 226.358,222.656 226.678 M219.260 230.642 C 218.531 231.466,219.000 231.857,219.781 231.076 C 220.121 230.736,220.400 230.354,220.400 230.229 C 220.400 229.809,219.806 230.024,219.260 230.642 M161.978 234.100 C 161.376 258.952,161.665 301.454,162.432 300.980 C 162.955 300.657,162.923 233.200,162.400 233.200 C 162.180 233.200,161.990 233.605,161.978 234.100 M215.260 234.642 C 214.531 235.466,215.000 235.857,215.781 235.076 C 216.121 234.736,216.400 234.354,216.400 234.229 C 216.400 233.809,215.806 234.024,215.260 234.642 M199.600 245.600 C 199.600 245.820,199.960 246.000,200.400 246.000 C 200.840 246.000,201.200 245.820,201.200 245.600 C 201.200 245.380,200.840 245.200,200.400 245.200 C 199.960 245.200,199.600 245.380,199.600 245.600 M160.944 303.801 C 160.817 304.131,160.827 304.851,160.964 305.401 C 161.143 306.111,161.053 306.400,160.654 306.400 C 160.346 306.400,159.985 306.805,159.852 307.300 C 159.454 308.785,159.563 308.993,160.300 308.155 C 161.479 306.814,162.000 305.666,162.000 304.405 C 162.000 303.144,161.341 302.767,160.944 303.801 M324.186 304.023 C 324.042 304.255,324.030 304.866,324.159 305.381 C 324.324 306.035,324.195 306.393,323.730 306.571 C 323.225 306.765,323.178 306.938,323.532 307.292 C 324.198 307.958,325.171 306.552,325.187 304.900 C 325.200 303.624,324.702 303.188,324.186 304.023 M322.262 308.731 C 321.134 309.978,321.839 310.618,323.029 309.429 C 323.659 308.798,323.790 308.000,323.262 308.000 C 323.076 308.000,322.626 308.329,322.262 308.731 M157.500 309.632 C 156.642 310.132,156.585 310.800,157.400 310.800 C 157.730 310.800,158.000 310.536,158.000 310.213 C 158.000 309.874,158.237 309.716,158.560 309.840 C 158.867 309.958,159.238 309.862,159.383 309.627 C 159.718 309.085,158.434 309.088,157.500 309.632 M320.256 309.878 C 319.805 310.328,319.981 310.800,320.600 310.800 C 320.930 310.800,321.200 310.631,321.200 310.424 C 321.200 309.919,320.575 309.558,320.256 309.878 M155.075 310.658 C 154.553 311.180,154.802 311.600,155.633 311.600 C 156.099 311.600,156.397 311.390,156.308 311.125 C 156.113 310.540,155.446 310.288,155.075 310.658 M318.656 310.678 C 318.205 311.128,318.381 311.600,319.000 311.600 C 319.330 311.600,319.600 311.431,319.600 311.224 C 319.600 310.719,318.975 310.358,318.656 310.678 M152.400 313.624 C 152.400 314.077,152.580 314.336,152.800 314.200 C 153.020 314.064,153.200 313.693,153.200 313.376 C 153.200 313.059,153.020 312.800,152.800 312.800 C 152.580 312.800,152.400 313.171,152.400 313.624 M315.600 314.200 C 315.600 314.530,315.780 314.800,316.000 314.800 C 316.220 314.800,316.400 314.530,316.400 314.200 C 316.400 313.870,316.220 313.600,316.000 313.600 C 315.780 313.600,315.600 313.870,315.600 314.200 M313.685 317.082 C 312.961 317.863,312.454 318.588,312.558 318.691 C 312.753 318.886,315.600 316.193,315.600 315.813 C 315.600 315.302,314.907 315.761,313.685 317.082 M150.060 317.451 C 149.543 318.002,149.217 318.550,149.336 318.669 C 149.552 318.885,151.600 317.030,151.600 316.618 C 151.600 316.147,150.956 316.495,150.060 317.451 M231.600 319.576 C 231.600 320.029,231.780 320.400,232.000 320.400 C 232.220 320.400,232.400 320.141,232.400 319.824 C 232.400 319.507,232.220 319.136,232.000 319.000 C 231.780 318.864,231.600 319.123,231.600 319.576 M70.000 319.800 C 70.000 320.130,70.180 320.400,70.400 320.400 C 70.620 320.400,70.800 320.130,70.800 319.800 C 70.800 319.470,70.620 319.200,70.400 319.200 C 70.180 319.200,70.000 319.470,70.000 319.800 M144.400 320.000 C 144.400 320.220,144.839 320.400,145.376 320.400 C 145.913 320.400,146.464 320.220,146.600 320.000 C 146.744 319.767,146.337 319.600,145.624 319.600 C 144.951 319.600,144.400 319.780,144.400 320.000 M307.600 320.000 C 307.600 320.220,308.140 320.400,308.800 320.400 C 309.460 320.400,310.000 320.220,310.000 320.000 C 310.000 319.780,309.460 319.600,308.800 319.600 C 308.140 319.600,307.600 319.780,307.600 320.000 M77.400 328.000 C 77.536 328.220,77.907 328.400,78.224 328.400 C 78.541 328.400,78.800 328.220,78.800 328.000 C 78.800 327.780,78.429 327.600,77.976 327.600 C 77.523 327.600,77.264 327.780,77.400 328.000 M136.200 328.000 C 136.336 328.220,136.696 328.400,137.000 328.400 C 137.304 328.400,137.664 328.220,137.800 328.000 C 137.941 327.772,137.596 327.600,137.000 327.600 C 136.404 327.600,136.059 327.772,136.200 328.000 M238.800 328.000 C 238.800 328.220,239.160 328.400,239.600 328.400 C 240.040 328.400,240.400 328.220,240.400 328.000 C 240.400 327.780,240.040 327.600,239.600 327.600 C 239.160 327.600,238.800 327.780,238.800 328.000 M299.400 328.000 C 299.536 328.220,299.896 328.400,300.200 328.400 C 300.504 328.400,300.864 328.220,301.000 328.000 C 301.141 327.772,300.796 327.600,300.200 327.600 C 299.604 327.600,299.259 327.772,299.400 328.000 M245.900 328.689 C 246.615 328.778,247.785 328.778,248.500 328.689 C 249.215 328.601,248.630 328.528,247.200 328.528 C 245.770 328.528,245.185 328.601,245.900 328.689 " stroke="none" fill="#04a4bc" fill-rule="evenodd"></path><path id="path6" d="M79.797 199.600 C 79.797 260.650,79.843 285.625,79.900 255.100 C 79.957 224.575,79.957 174.625,79.900 144.100 C 79.843 113.575,79.797 138.550,79.797 199.600 M227.840 103.198 C 227.240 104.299,226.836 105.200,226.941 105.200 C 227.208 105.200,229.243 101.510,229.071 101.337 C 228.993 101.260,228.439 102.097,227.840 103.198 M225.440 107.598 C 224.840 108.699,224.436 109.600,224.541 109.600 C 224.808 109.600,226.843 105.910,226.671 105.737 C 226.593 105.660,226.039 106.497,225.440 107.598 M223.040 111.998 C 222.440 113.099,222.036 114.000,222.141 114.000 C 222.408 114.000,224.443 110.310,224.271 110.137 C 224.193 110.060,223.639 110.897,223.040 111.998 M221.131 115.512 C 220.787 116.111,219.916 117.680,219.197 119.000 C 218.477 120.320,217.374 122.345,216.744 123.500 C 216.115 124.655,215.035 126.635,214.344 127.900 C 213.654 129.165,212.598 131.100,211.997 132.200 C 211.397 133.300,210.227 135.460,209.398 137.000 C 208.570 138.540,207.736 139.971,207.546 140.180 C 207.356 140.389,207.200 140.744,207.200 140.969 C 207.200 141.532,208.001 140.305,209.790 137.000 C 211.266 134.274,212.095 132.751,214.800 127.800 C 217.637 122.608,218.349 121.298,219.805 118.600 C 220.636 117.060,221.496 115.571,221.715 115.290 C 221.935 115.010,222.034 114.701,221.936 114.603 C 221.838 114.505,221.476 114.914,221.131 115.512 M241.124 198.700 C 241.056 198.865,241.091 224.020,241.203 254.600 L 241.406 310.200 241.503 254.300 C 241.556 223.555,241.521 198.400,241.424 198.400 C 241.327 198.400,241.192 198.535,241.124 198.700 M161.898 206.635 C 161.770 206.763,161.952 207.202,162.303 207.612 C 162.653 208.021,163.764 209.881,164.770 211.745 C 165.777 213.609,166.763 215.284,166.961 215.467 C 167.316 215.794,164.107 209.655,162.798 207.501 C 162.431 206.897,162.026 206.507,161.898 206.635 M171.831 224.800 C 175.180 231.242,180.604 236.665,182.926 235.891 C 183.136 235.821,182.552 235.514,181.628 235.209 C 178.585 234.205,175.606 231.025,172.755 225.741 C 172.061 224.453,171.311 223.220,171.090 223.000 C 170.869 222.780,171.202 223.590,171.831 224.800 M185.100 236.682 C 185.595 236.778,186.405 236.778,186.900 236.682 C 187.395 236.587,186.990 236.509,186.000 236.509 C 185.010 236.509,184.605 236.587,185.100 236.682 M207.100 236.682 C 207.595 236.778,208.405 236.778,208.900 236.682 C 209.395 236.587,208.990 236.509,208.000 236.509 C 207.010 236.509,206.605 236.587,207.100 236.682 M192.523 237.099 C 195.120 237.169,199.260 237.168,201.723 237.098 C 204.185 237.028,202.060 236.971,197.000 236.972 C 191.940 236.972,189.925 237.029,192.523 237.099 M241.650 311.516 C 241.588 313.142,242.727 315.442,244.406 317.085 C 245.586 318.238,247.483 319.181,246.977 318.363 C 246.854 318.163,246.529 318.000,246.255 318.000 C 244.924 318.000,242.406 314.356,241.972 311.800 C 241.710 310.257,241.698 310.247,241.650 311.516 M80.093 312.000 C 80.093 312.770,80.175 313.085,80.276 312.700 C 80.376 312.315,80.376 311.685,80.276 311.300 C 80.175 310.915,80.093 311.230,80.093 312.000 M80.664 314.279 C 81.559 316.814,85.230 319.421,87.441 319.092 L 88.600 318.920 87.312 318.860 C 85.089 318.756,81.202 315.999,81.200 314.524 C 81.200 314.262,81.022 313.937,80.805 313.803 C 80.569 313.658,80.512 313.851,80.664 314.279 M248.305 319.083 C 248.802 319.179,249.522 319.175,249.905 319.075 C 250.287 318.975,249.880 318.896,249.000 318.901 C 248.120 318.905,247.807 318.987,248.305 319.083 M102.300 319.500 C 109.835 319.561,122.165 319.561,129.700 319.500 C 137.235 319.439,131.070 319.389,116.000 319.389 C 100.930 319.389,94.765 319.439,102.300 319.500 M264.929 319.500 C 272.811 319.561,285.591 319.561,293.329 319.500 C 301.068 319.439,294.620 319.389,279.000 319.390 C 263.380 319.390,257.048 319.439,264.929 319.500 " stroke="none" fill="#fcc3fc" fill-rule="evenodd"></path><path id="path7" d="M87.862 80.300 C 87.760 80.465,101.564 80.600,118.538 80.600 L 149.400 80.600 151.694 81.675 C 155.690 83.548,158.154 86.621,163.499 96.400 C 164.160 97.610,165.597 100.220,166.692 102.200 C 167.786 104.180,169.371 107.060,170.214 108.600 C 171.057 110.140,172.253 112.263,172.873 113.318 C 173.493 114.372,174.000 115.303,174.000 115.386 C 174.000 115.469,174.900 117.095,176.000 119.000 C 177.100 120.905,178.000 122.510,178.000 122.567 C 178.000 122.624,179.440 125.249,181.200 128.400 C 182.960 131.551,184.400 134.182,184.400 134.247 C 184.400 134.312,184.908 135.228,185.529 136.282 C 186.150 137.337,187.438 139.640,188.392 141.400 C 193.009 149.916,195.490 151.653,200.585 149.935 C 202.578 149.262,206.800 143.783,206.800 141.868 C 206.800 141.412,205.824 143.004,204.536 145.561 C 201.562 151.466,194.520 151.381,191.180 145.400 C 190.689 144.520,189.840 142.990,189.294 142.000 C 188.748 141.010,187.985 139.660,187.599 139.000 C 187.214 138.340,186.311 136.720,185.594 135.400 C 184.876 134.080,183.839 132.190,183.289 131.200 C 182.739 130.210,181.889 128.680,181.400 127.800 C 180.911 126.920,180.011 125.300,179.400 124.200 C 178.789 123.100,177.889 121.480,177.400 120.600 C 176.911 119.720,176.011 118.100,175.400 117.000 C 174.046 114.564,172.712 112.161,171.457 109.900 C 170.938 108.965,170.158 107.570,169.725 106.800 C 169.291 106.030,168.160 103.960,167.212 102.200 C 166.264 100.440,165.359 98.820,165.202 98.600 C 165.045 98.380,164.237 96.940,163.407 95.400 C 157.916 85.217,155.738 82.809,149.881 80.451 C 148.598 79.934,88.179 79.787,87.862 80.300 M245.200 80.633 C 243.956 81.142,243.933 81.175,245.000 80.927 C 247.680 80.303,307.127 80.347,309.241 80.975 C 312.085 81.820,313.568 83.033,314.653 85.403 L 315.603 87.478 315.501 199.919 C 315.434 274.880,315.533 312.227,315.800 311.960 C 316.065 311.695,316.200 273.667,316.200 199.480 L 316.200 87.400 315.287 85.600 C 313.740 82.548,313.029 81.907,309.937 80.777 C 307.102 79.741,247.705 79.609,245.200 80.633 M152.601 191.300 C 152.264 192.714,152.164 311.946,152.500 311.738 C 152.665 311.636,152.800 284.563,152.800 251.576 C 152.800 217.438,152.951 191.600,153.151 191.600 C 153.660 191.600,154.094 192.237,155.944 195.700 C 160.187 203.643,160.958 205.052,161.461 205.789 C 162.496 207.304,161.989 205.900,160.547 203.260 C 159.748 201.797,158.560 199.610,157.907 198.400 C 153.519 190.268,153.009 189.586,152.601 191.300 M240.107 191.300 C 239.710 191.808,238.260 194.438,235.202 200.200 C 234.268 201.960,233.007 204.300,232.399 205.400 C 231.792 206.500,230.436 209.018,229.387 210.997 C 228.337 212.975,227.159 215.161,226.769 215.855 C 226.379 216.550,225.117 218.891,223.964 221.059 C 222.811 223.226,221.628 225.355,221.334 225.789 C 220.735 226.675,220.590 227.591,221.146 226.980 C 221.471 226.622,222.277 225.173,225.751 218.700 C 226.548 217.215,227.806 214.875,228.547 213.500 C 229.288 212.125,230.572 209.740,231.400 208.200 C 232.229 206.660,233.584 204.140,234.413 202.600 C 235.241 201.060,236.566 198.630,237.356 197.200 C 238.145 195.770,239.106 193.925,239.490 193.100 C 240.535 190.857,240.800 191.247,240.800 195.024 C 240.800 197.204,240.945 198.357,241.200 198.200 C 241.857 197.794,241.715 190.800,241.049 190.800 C 240.746 190.800,240.322 191.025,240.107 191.300 M216.778 232.300 L 215.400 233.800 216.900 232.422 C 218.296 231.138,218.584 230.800,218.278 230.800 C 218.212 230.800,217.537 231.475,216.778 232.300 " stroke="none" fill="#c7f5f7" fill-rule="evenodd"></path><path id="path8" d="M86.800 80.000 C 86.800 80.220,86.260 80.400,85.600 80.400 C 84.940 80.400,84.400 80.580,84.400 80.800 C 84.400 81.020,84.124 81.200,83.787 81.200 C 82.906 81.200,80.400 83.830,80.400 84.753 C 80.400 85.182,80.175 85.614,79.900 85.712 C 79.625 85.810,79.523 86.023,79.673 86.185 C 80.088 86.632,80.800 86.044,80.800 85.255 C 80.800 84.345,83.319 81.600,84.154 81.600 C 84.509 81.600,84.800 81.420,84.800 81.200 C 84.800 80.980,85.408 80.800,86.151 80.800 C 86.894 80.800,87.726 80.530,88.000 80.200 C 88.416 79.699,88.358 79.600,87.649 79.600 C 87.182 79.600,86.800 79.780,86.800 80.000 M243.200 80.800 C 243.200 81.020,242.840 81.200,242.400 81.200 C 241.960 81.200,241.600 81.380,241.600 81.600 C 241.600 81.820,241.416 82.000,241.191 82.000 C 240.757 82.000,236.400 86.210,236.400 86.630 C 236.400 86.765,236.028 87.399,235.573 88.038 C 235.118 88.677,234.898 89.200,235.084 89.200 C 235.511 89.200,236.800 87.714,236.800 87.222 C 236.800 86.621,241.200 82.400,241.826 82.400 C 242.142 82.400,242.400 82.220,242.400 82.000 C 242.400 81.780,242.741 81.600,243.157 81.600 C 243.574 81.600,244.018 81.330,244.145 81.000 C 244.285 80.635,244.145 80.400,243.787 80.400 C 243.464 80.400,243.200 80.580,243.200 80.800 M220.500 227.888 C 219.899 228.103,219.826 229.200,220.413 229.200 C 220.825 229.200,221.431 228.079,221.149 227.838 C 221.067 227.767,220.775 227.790,220.500 227.888 M217.215 232.015 C 215.129 234.249,214.356 234.816,212.633 235.377 C 212.012 235.579,211.965 235.719,212.383 236.113 C 212.790 236.496,212.939 236.493,213.083 236.100 C 213.184 235.825,213.572 235.600,213.945 235.600 C 214.318 235.600,214.883 235.240,215.200 234.800 C 215.517 234.360,216.015 234.000,216.306 234.000 C 216.963 234.000,218.800 232.206,218.800 231.565 C 218.800 231.306,219.188 230.758,219.661 230.347 C 220.211 229.870,220.319 229.613,219.961 229.637 C 219.653 229.657,218.417 230.727,217.215 232.015 M152.267 311.867 C 152.120 312.013,152.021 312.598,152.046 313.167 C 152.077 313.844,152.156 313.959,152.276 313.500 C 152.376 313.115,152.625 312.800,152.829 312.800 C 153.033 312.800,153.200 312.530,153.200 312.200 C 153.200 311.575,152.727 311.406,152.267 311.867 M315.700 312.055 C 315.425 312.333,315.200 312.886,315.200 313.285 C 315.200 315.640,311.434 318.886,308.200 319.319 C 307.381 319.429,307.603 319.499,308.900 319.540 C 309.945 319.573,310.800 319.420,310.800 319.200 C 310.800 318.980,311.090 318.800,311.444 318.800 C 312.350 318.800,315.600 315.400,315.600 314.452 C 315.600 314.020,315.798 313.601,316.039 313.520 C 316.281 313.440,316.416 312.963,316.339 312.462 C 316.227 311.729,316.102 311.649,315.700 312.055 M151.200 315.033 C 151.200 315.382,151.414 315.595,151.675 315.508 C 152.417 315.261,152.540 314.400,151.833 314.400 C 151.485 314.400,151.200 314.685,151.200 315.033 M149.441 317.231 C 148.804 317.874,147.968 318.400,147.584 318.400 C 147.200 318.400,146.782 318.670,146.655 319.000 C 146.515 319.365,146.655 319.600,147.013 319.600 C 147.336 319.600,147.600 319.420,147.600 319.200 C 147.600 318.980,147.876 318.800,148.213 318.800 C 148.551 318.800,149.457 318.170,150.227 317.400 C 150.997 316.630,151.396 316.014,151.113 316.031 C 150.831 316.048,150.079 316.588,149.441 317.231 " stroke="none" fill="#bcccd4" fill-rule="evenodd"></path></g></svg>